<?xml version="1.0" encoding="utf-8" standalone="no"?>
<!DOCTYPE svg PUBLIC "-//W3C//DTD SVG 1.1//EN"
  "http://www.w3.org/Graphics/SVG/1.1/DTD/svg11.dtd">
<svg xmlns:xlink="http://www.w3.org/1999/xlink" width="349.2pt" height="340.56pt" viewBox="0 0 349.2 340.56" xmlns="http://www.w3.org/2000/svg" version="1.1">
 <metadata>
  <rdf:RDF xmlns:dc="http://purl.org/dc/elements/1.1/" xmlns:cc="http://creativecommons.org/ns#" xmlns:rdf="http://www.w3.org/1999/02/22-rdf-syntax-ns#">
   <cc:Work>
    <dc:type rdf:resource="http://purl.org/dc/dcmitype/StillImage"/>
    <dc:date>2022-06-20T07:46:19.696122</dc:date>
    <dc:format>image/svg+xml</dc:format>
    <dc:creator>
     <cc:Agent>
      <dc:title>Matplotlib v3.5.2, https://matplotlib.org/</dc:title>
     </cc:Agent>
    </dc:creator>
   </cc:Work>
  </rdf:RDF>
 </metadata>
 <defs>
  <style type="text/css">*{stroke-linejoin: round; stroke-linecap: butt}</style>
 </defs>
 <g id="figure_1">
  <g id="patch_1">
   <path d="M 0 340.56 
L 349.2 340.56 
L 349.2 0 
L 0 0 
L 0 340.56 
z
" style="fill: none"/>
  </g>
  <g id="axes_1">
   <g id="LineCollection_1">
    <path d="M 107.655123 128.878883 
L 165.925127 94.437671 
" clip-path="url(#pf967b418de)" style="fill: none; stroke: #000000; stroke-opacity: 0.5"/>
    <path d="M 107.655123 128.878883 
L 99.231788 196.094811 
" clip-path="url(#pf967b418de)" style="fill: none; stroke: #000000; stroke-opacity: 0.5"/>
    <path d="M 107.655123 128.878883 
L 70.141981 78.309726 
" clip-path="url(#pf967b418de)" style="fill: none; stroke: #000000; stroke-opacity: 0.5"/>
    <path d="M 107.655123 128.878883 
L 46.395969 114.504792 
" clip-path="url(#pf967b418de)" style="fill: none; stroke: #000000; stroke-opacity: 0.5"/>
    <path d="M 99.231788 196.094811 
L 145.62928 244.743505 
" clip-path="url(#pf967b418de)" style="fill: none; stroke: #000000; stroke-opacity: 0.5"/>
    <path d="M 99.231788 196.094811 
L 36.252893 196.650366 
" clip-path="url(#pf967b418de)" style="fill: none; stroke: #000000; stroke-opacity: 0.5"/>
    <path d="M 99.231788 196.094811 
L 53.027711 237.592974 
" clip-path="url(#pf967b418de)" style="fill: none; stroke: #000000; stroke-opacity: 0.5"/>
    <path d="M 145.62928 244.743505 
L 207.420852 230.026498 
" clip-path="url(#pf967b418de)" style="fill: none; stroke: #000000; stroke-opacity: 0.5"/>
    <path d="M 145.62928 244.743505 
L 113.39712 298.350184 
" clip-path="url(#pf967b418de)" style="fill: none; stroke: #000000; stroke-opacity: 0.5"/>
    <path d="M 145.62928 244.743505 
L 161.76926 305.05686 
" clip-path="url(#pf967b418de)" style="fill: none; stroke: #000000; stroke-opacity: 0.5"/>
    <path d="M 207.420852 230.026498 
L 263.999509 231.677876 
" clip-path="url(#pf967b418de)" style="fill: none; stroke: #000000; stroke-opacity: 0.5"/>
    <path d="M 207.420852 230.026498 
L 240.009231 180.353895 
" clip-path="url(#pf967b418de)" style="fill: none; stroke: #000000; stroke-opacity: 0.5"/>
    <path d="M 240.009231 180.353895 
L 263.999509 231.677876 
" clip-path="url(#pf967b418de)" style="fill: none; stroke: #000000; stroke-opacity: 0.5"/>
    <path d="M 240.009231 180.353895 
L 228.952911 117.738039 
" clip-path="url(#pf967b418de)" style="fill: none; stroke: #000000; stroke-opacity: 0.5"/>
    <path d="M 263.999509 231.677876 
L 312.947107 263.861865 
" clip-path="url(#pf967b418de)" style="fill: none; stroke: #000000; stroke-opacity: 0.5"/>
    <path d="M 228.952911 117.738039 
L 165.925127 94.437671 
" clip-path="url(#pf967b418de)" style="fill: none; stroke: #000000; stroke-opacity: 0.5"/>
    <path d="M 228.952911 117.738039 
L 290.65322 108.606175 
" clip-path="url(#pf967b418de)" style="fill: none; stroke: #000000; stroke-opacity: 0.5"/>
    <path d="M 228.952911 117.738039 
L 265.289222 66.830402 
" clip-path="url(#pf967b418de)" style="fill: none; stroke: #000000; stroke-opacity: 0.5"/>
    <path d="M 165.925127 94.437671 
L 185.610813 35.50314 
" clip-path="url(#pf967b418de)" style="fill: none; stroke: #000000; stroke-opacity: 0.5"/>
    <path d="M 165.925127 94.437671 
L 141.415097 36.358189 
" clip-path="url(#pf967b418de)" style="fill: none; stroke: #000000; stroke-opacity: 0.5"/>
   </g>
   <g id="PathCollection_1">
    <defs>
     <path id="C0_0_f9a6514899" d="M 0 11.470787 
C 3.042088 11.470787 5.95999 10.262152 8.111071 8.111071 
C 10.262152 5.95999 11.470787 3.042088 11.470787 -0 
C 11.470787 -3.042088 10.262152 -5.95999 8.111071 -8.111071 
C 5.95999 -10.262152 3.042088 -11.470787 0 -11.470787 
C -3.042088 -11.470787 -5.95999 -10.262152 -8.111071 -8.111071 
C -10.262152 -5.95999 -11.470787 -3.042088 -11.470787 0 
C -11.470787 3.042088 -10.262152 5.95999 -8.111071 8.111071 
C -5.95999 10.262152 -3.042088 11.470787 0 11.470787 
z
"/>
    </defs>
    <g clip-path="url(#pf967b418de)">
     <use xlink:href="#C0_0_f9a6514899" x="107.655123" y="128.878883" style="fill: #8000ff; fill-opacity: 0.5; stroke: #8000ff; stroke-opacity: 0.5"/>
    </g>
    <g clip-path="url(#pf967b418de)">
     <use xlink:href="#C0_0_f9a6514899" x="99.231788" y="196.094811" style="fill: #8000ff; fill-opacity: 0.5; stroke: #8000ff; stroke-opacity: 0.5"/>
    </g>
    <g clip-path="url(#pf967b418de)">
     <use xlink:href="#C0_0_f9a6514899" x="145.62928" y="244.743505" style="fill: #8000ff; fill-opacity: 0.5; stroke: #8000ff; stroke-opacity: 0.5"/>
    </g>
    <g clip-path="url(#pf967b418de)">
     <use xlink:href="#C0_0_f9a6514899" x="207.420852" y="230.026498" style="fill: #8000ff; fill-opacity: 0.5; stroke: #8000ff; stroke-opacity: 0.5"/>
    </g>
    <g clip-path="url(#pf967b418de)">
     <use xlink:href="#C0_0_f9a6514899" x="240.009231" y="180.353895" style="fill: #8000ff; fill-opacity: 0.5; stroke: #8000ff; stroke-opacity: 0.5"/>
    </g>
    <g clip-path="url(#pf967b418de)">
     <use xlink:href="#C0_0_f9a6514899" x="263.999509" y="231.677876" style="fill: #8000ff; fill-opacity: 0.5; stroke: #8000ff; stroke-opacity: 0.5"/>
    </g>
    <g clip-path="url(#pf967b418de)">
     <use xlink:href="#C0_0_f9a6514899" x="312.947107" y="263.861865" style="fill: #8000ff; fill-opacity: 0.5; stroke: #8000ff; stroke-opacity: 0.5"/>
    </g>
    <g clip-path="url(#pf967b418de)">
     <use xlink:href="#C0_0_f9a6514899" x="228.952911" y="117.738039" style="fill: #8000ff; fill-opacity: 0.5; stroke: #8000ff; stroke-opacity: 0.5"/>
    </g>
    <g clip-path="url(#pf967b418de)">
     <use xlink:href="#C0_0_f9a6514899" x="165.925127" y="94.437671" style="fill: #8000ff; fill-opacity: 0.5; stroke: #8000ff; stroke-opacity: 0.5"/>
    </g>
    <g clip-path="url(#pf967b418de)">
     <use xlink:href="#C0_0_f9a6514899" x="70.141981" y="78.309726" style="fill: #8000ff; fill-opacity: 0.5; stroke: #8000ff; stroke-opacity: 0.5"/>
    </g>
    <g clip-path="url(#pf967b418de)">
     <use xlink:href="#C0_0_f9a6514899" x="46.395969" y="114.504792" style="fill: #8000ff; fill-opacity: 0.5; stroke: #8000ff; stroke-opacity: 0.5"/>
    </g>
    <g clip-path="url(#pf967b418de)">
     <use xlink:href="#C0_0_f9a6514899" x="36.252893" y="196.650366" style="fill: #8000ff; fill-opacity: 0.5; stroke: #8000ff; stroke-opacity: 0.5"/>
    </g>
    <g clip-path="url(#pf967b418de)">
     <use xlink:href="#C0_0_f9a6514899" x="53.027711" y="237.592974" style="fill: #8000ff; fill-opacity: 0.5; stroke: #8000ff; stroke-opacity: 0.5"/>
    </g>
    <g clip-path="url(#pf967b418de)">
     <use xlink:href="#C0_0_f9a6514899" x="113.39712" y="298.350184" style="fill: #8000ff; fill-opacity: 0.5; stroke: #8000ff; stroke-opacity: 0.5"/>
    </g>
    <g clip-path="url(#pf967b418de)">
     <use xlink:href="#C0_0_f9a6514899" x="161.76926" y="305.05686" style="fill: #8000ff; fill-opacity: 0.5; stroke: #8000ff; stroke-opacity: 0.5"/>
    </g>
    <g clip-path="url(#pf967b418de)">
     <use xlink:href="#C0_0_f9a6514899" x="290.65322" y="108.606175" style="fill: #8000ff; fill-opacity: 0.5; stroke: #8000ff; stroke-opacity: 0.5"/>
    </g>
    <g clip-path="url(#pf967b418de)">
     <use xlink:href="#C0_0_f9a6514899" x="265.289222" y="66.830402" style="fill: #8000ff; fill-opacity: 0.5; stroke: #8000ff; stroke-opacity: 0.5"/>
    </g>
    <g clip-path="url(#pf967b418de)">
     <use xlink:href="#C0_0_f9a6514899" x="185.610813" y="35.50314" style="fill: #8000ff; fill-opacity: 0.5; stroke: #8000ff; stroke-opacity: 0.5"/>
    </g>
    <g clip-path="url(#pf967b418de)">
     <use xlink:href="#C0_0_f9a6514899" x="141.415097" y="36.358189" style="fill: #8000ff; fill-opacity: 0.5; stroke: #8000ff; stroke-opacity: 0.5"/>
    </g>
   </g>
   <g id="text_1">
    <g clip-path="url(#pf967b418de)">
     <!-- 11 -->
     <g style="opacity: 0.5" transform="translate(99.305748 132.190133)scale(0.12 -0.12)">
      <defs>
       <path id="DejaVuSans-Bold-31" d="M 750 831 
L 1813 831 
L 1813 3847 
L 722 3622 
L 722 4441 
L 1806 4666 
L 2950 4666 
L 2950 831 
L 4013 831 
L 4013 0 
L 750 0 
L 750 831 
z
" transform="scale(0.015625)"/>
      </defs>
      <use xlink:href="#DejaVuSans-Bold-31"/>
      <use xlink:href="#DejaVuSans-Bold-31" x="69.580078"/>
     </g>
    </g>
   </g>
   <g id="text_2">
    <g clip-path="url(#pf967b418de)">
     <!-- 13 -->
     <g style="opacity: 0.5" transform="translate(90.882413 199.406061)scale(0.12 -0.12)">
      <defs>
       <path id="DejaVuSans-Bold-33" d="M 2981 2516 
Q 3453 2394 3698 2092 
Q 3944 1791 3944 1325 
Q 3944 631 3412 270 
Q 2881 -91 1863 -91 
Q 1503 -91 1142 -33 
Q 781 25 428 141 
L 428 1069 
Q 766 900 1098 814 
Q 1431 728 1753 728 
Q 2231 728 2486 893 
Q 2741 1059 2741 1369 
Q 2741 1688 2480 1852 
Q 2219 2016 1709 2016 
L 1228 2016 
L 1228 2791 
L 1734 2791 
Q 2188 2791 2409 2933 
Q 2631 3075 2631 3366 
Q 2631 3634 2415 3781 
Q 2200 3928 1806 3928 
Q 1516 3928 1219 3862 
Q 922 3797 628 3669 
L 628 4550 
Q 984 4650 1334 4700 
Q 1684 4750 2022 4750 
Q 2931 4750 3382 4451 
Q 3834 4153 3834 3553 
Q 3834 3144 3618 2883 
Q 3403 2622 2981 2516 
z
" transform="scale(0.015625)"/>
      </defs>
      <use xlink:href="#DejaVuSans-Bold-31"/>
      <use xlink:href="#DejaVuSans-Bold-33" x="69.580078"/>
     </g>
    </g>
   </g>
   <g id="text_3">
    <g clip-path="url(#pf967b418de)">
     <!-- 12 -->
     <g style="opacity: 0.5" transform="translate(137.279905 248.054755)scale(0.12 -0.12)">
      <defs>
       <path id="DejaVuSans-Bold-32" d="M 1844 884 
L 3897 884 
L 3897 0 
L 506 0 
L 506 884 
L 2209 2388 
Q 2438 2594 2547 2791 
Q 2656 2988 2656 3200 
Q 2656 3528 2436 3728 
Q 2216 3928 1850 3928 
Q 1569 3928 1234 3808 
Q 900 3688 519 3450 
L 519 4475 
Q 925 4609 1322 4679 
Q 1719 4750 2100 4750 
Q 2938 4750 3402 4381 
Q 3866 4013 3866 3353 
Q 3866 2972 3669 2642 
Q 3472 2313 2841 1759 
L 1844 884 
z
" transform="scale(0.015625)"/>
      </defs>
      <use xlink:href="#DejaVuSans-Bold-31"/>
      <use xlink:href="#DejaVuSans-Bold-32" x="69.580078"/>
     </g>
    </g>
   </g>
   <g id="text_4">
    <g clip-path="url(#pf967b418de)">
     <!-- 16 -->
     <g style="opacity: 0.5" transform="translate(199.071477 233.337748)scale(0.12 -0.12)">
      <defs>
       <path id="DejaVuSans-Bold-36" d="M 2316 2303 
Q 2000 2303 1842 2098 
Q 1684 1894 1684 1484 
Q 1684 1075 1842 870 
Q 2000 666 2316 666 
Q 2634 666 2792 870 
Q 2950 1075 2950 1484 
Q 2950 1894 2792 2098 
Q 2634 2303 2316 2303 
z
M 3803 4544 
L 3803 3681 
Q 3506 3822 3243 3889 
Q 2981 3956 2731 3956 
Q 2194 3956 1894 3657 
Q 1594 3359 1544 2772 
Q 1750 2925 1990 3001 
Q 2231 3078 2516 3078 
Q 3231 3078 3670 2659 
Q 4109 2241 4109 1563 
Q 4109 813 3618 361 
Q 3128 -91 2303 -91 
Q 1394 -91 895 523 
Q 397 1138 397 2266 
Q 397 3422 980 4083 
Q 1563 4744 2578 4744 
Q 2900 4744 3203 4694 
Q 3506 4644 3803 4544 
z
" transform="scale(0.015625)"/>
      </defs>
      <use xlink:href="#DejaVuSans-Bold-31"/>
      <use xlink:href="#DejaVuSans-Bold-36" x="69.580078"/>
     </g>
    </g>
   </g>
   <g id="text_5">
    <g clip-path="url(#pf967b418de)">
     <!-- 15 -->
     <g style="opacity: 0.5" transform="translate(231.659856 183.665145)scale(0.12 -0.12)">
      <defs>
       <path id="DejaVuSans-Bold-35" d="M 678 4666 
L 3669 4666 
L 3669 3781 
L 1638 3781 
L 1638 3059 
Q 1775 3097 1914 3117 
Q 2053 3138 2203 3138 
Q 3056 3138 3531 2711 
Q 4006 2284 4006 1522 
Q 4006 766 3489 337 
Q 2972 -91 2053 -91 
Q 1656 -91 1267 -14 
Q 878 63 494 219 
L 494 1166 
Q 875 947 1217 837 
Q 1559 728 1863 728 
Q 2300 728 2551 942 
Q 2803 1156 2803 1522 
Q 2803 1891 2551 2103 
Q 2300 2316 1863 2316 
Q 1603 2316 1309 2248 
Q 1016 2181 678 2041 
L 678 4666 
z
" transform="scale(0.015625)"/>
      </defs>
      <use xlink:href="#DejaVuSans-Bold-31"/>
      <use xlink:href="#DejaVuSans-Bold-35" x="69.580078"/>
     </g>
    </g>
   </g>
   <g id="text_6">
    <g clip-path="url(#pf967b418de)">
     <!-- 17 -->
     <g style="opacity: 0.5" transform="translate(255.650134 234.989126)scale(0.12 -0.12)">
      <defs>
       <path id="DejaVuSans-Bold-37" d="M 428 4666 
L 3944 4666 
L 3944 3988 
L 2125 0 
L 953 0 
L 2675 3781 
L 428 3781 
L 428 4666 
z
" transform="scale(0.015625)"/>
      </defs>
      <use xlink:href="#DejaVuSans-Bold-31"/>
      <use xlink:href="#DejaVuSans-Bold-37" x="69.580078"/>
     </g>
    </g>
   </g>
   <g id="text_7">
    <g clip-path="url(#pf967b418de)">
     <!-- 18 -->
     <g style="opacity: 0.5" transform="translate(304.597732 267.173115)scale(0.12 -0.12)">
      <defs>
       <path id="DejaVuSans-Bold-38" d="M 2228 2088 
Q 1891 2088 1709 1903 
Q 1528 1719 1528 1375 
Q 1528 1031 1709 848 
Q 1891 666 2228 666 
Q 2563 666 2741 848 
Q 2919 1031 2919 1375 
Q 2919 1722 2741 1905 
Q 2563 2088 2228 2088 
z
M 1350 2484 
Q 925 2613 709 2878 
Q 494 3144 494 3541 
Q 494 4131 934 4440 
Q 1375 4750 2228 4750 
Q 3075 4750 3515 4442 
Q 3956 4134 3956 3541 
Q 3956 3144 3739 2878 
Q 3522 2613 3097 2484 
Q 3572 2353 3814 2058 
Q 4056 1763 4056 1313 
Q 4056 619 3595 264 
Q 3134 -91 2228 -91 
Q 1319 -91 855 264 
Q 391 619 391 1313 
Q 391 1763 633 2058 
Q 875 2353 1350 2484 
z
M 1631 3419 
Q 1631 3141 1786 2991 
Q 1941 2841 2228 2841 
Q 2509 2841 2662 2991 
Q 2816 3141 2816 3419 
Q 2816 3697 2662 3845 
Q 2509 3994 2228 3994 
Q 1941 3994 1786 3844 
Q 1631 3694 1631 3419 
z
" transform="scale(0.015625)"/>
      </defs>
      <use xlink:href="#DejaVuSans-Bold-31"/>
      <use xlink:href="#DejaVuSans-Bold-38" x="69.580078"/>
     </g>
    </g>
   </g>
   <g id="text_8">
    <g clip-path="url(#pf967b418de)">
     <!-- 10 -->
     <g style="opacity: 0.5" transform="translate(220.603536 121.049289)scale(0.12 -0.12)">
      <defs>
       <path id="DejaVuSans-Bold-30" d="M 2944 2338 
Q 2944 3213 2780 3570 
Q 2616 3928 2228 3928 
Q 1841 3928 1675 3570 
Q 1509 3213 1509 2338 
Q 1509 1453 1675 1090 
Q 1841 728 2228 728 
Q 2613 728 2778 1090 
Q 2944 1453 2944 2338 
z
M 4147 2328 
Q 4147 1169 3647 539 
Q 3147 -91 2228 -91 
Q 1306 -91 806 539 
Q 306 1169 306 2328 
Q 306 3491 806 4120 
Q 1306 4750 2228 4750 
Q 3147 4750 3647 4120 
Q 4147 3491 4147 2328 
z
" transform="scale(0.015625)"/>
      </defs>
      <use xlink:href="#DejaVuSans-Bold-31"/>
      <use xlink:href="#DejaVuSans-Bold-30" x="69.580078"/>
     </g>
    </g>
   </g>
   <g id="text_9">
    <g clip-path="url(#pf967b418de)">
     <!-- 14 -->
     <g style="opacity: 0.5" transform="translate(157.575752 97.748921)scale(0.12 -0.12)">
      <defs>
       <path id="DejaVuSans-Bold-34" d="M 2356 3675 
L 1038 1722 
L 2356 1722 
L 2356 3675 
z
M 2156 4666 
L 3494 4666 
L 3494 1722 
L 4159 1722 
L 4159 850 
L 3494 850 
L 3494 0 
L 2356 0 
L 2356 850 
L 288 850 
L 288 1881 
L 2156 4666 
z
" transform="scale(0.015625)"/>
      </defs>
      <use xlink:href="#DejaVuSans-Bold-31"/>
      <use xlink:href="#DejaVuSans-Bold-34" x="69.580078"/>
     </g>
    </g>
   </g>
   <g id="text_10">
    <g clip-path="url(#pf967b418de)">
     <!-- 1 -->
     <g style="opacity: 0.5" transform="translate(65.967293 81.620976)scale(0.12 -0.12)">
      <use xlink:href="#DejaVuSans-Bold-31"/>
     </g>
    </g>
   </g>
   <g id="text_11">
    <g clip-path="url(#pf967b418de)">
     <!-- 3 -->
     <g style="opacity: 0.5" transform="translate(42.221281 117.816042)scale(0.12 -0.12)">
      <use xlink:href="#DejaVuSans-Bold-33"/>
     </g>
    </g>
   </g>
   <g id="text_12">
    <g clip-path="url(#pf967b418de)">
     <!-- 7 -->
     <g style="opacity: 0.5" transform="translate(32.078205 199.961616)scale(0.12 -0.12)">
      <use xlink:href="#DejaVuSans-Bold-37"/>
     </g>
    </g>
   </g>
   <g id="text_13">
    <g clip-path="url(#pf967b418de)">
     <!-- 0 -->
     <g style="opacity: 0.5" transform="translate(48.853023 240.904224)scale(0.12 -0.12)">
      <use xlink:href="#DejaVuSans-Bold-30"/>
     </g>
    </g>
   </g>
   <g id="text_14">
    <g clip-path="url(#pf967b418de)">
     <!-- 6 -->
     <g style="opacity: 0.5" transform="translate(109.222432 301.661434)scale(0.12 -0.12)">
      <use xlink:href="#DejaVuSans-Bold-36"/>
     </g>
    </g>
   </g>
   <g id="text_15">
    <g clip-path="url(#pf967b418de)">
     <!-- 9 -->
     <g style="opacity: 0.5" transform="translate(157.594573 308.36811)scale(0.12 -0.12)">
      <defs>
       <path id="DejaVuSans-Bold-39" d="M 641 103 
L 641 966 
Q 928 831 1190 764 
Q 1453 697 1709 697 
Q 2247 697 2547 995 
Q 2847 1294 2900 1881 
Q 2688 1725 2447 1647 
Q 2206 1569 1925 1569 
Q 1209 1569 770 1986 
Q 331 2403 331 3084 
Q 331 3838 820 4291 
Q 1309 4744 2131 4744 
Q 3044 4744 3544 4128 
Q 4044 3513 4044 2388 
Q 4044 1231 3459 570 
Q 2875 -91 1856 -91 
Q 1528 -91 1228 -42 
Q 928 6 641 103 
z
M 2125 2350 
Q 2441 2350 2600 2554 
Q 2759 2759 2759 3169 
Q 2759 3575 2600 3781 
Q 2441 3988 2125 3988 
Q 1809 3988 1650 3781 
Q 1491 3575 1491 3169 
Q 1491 2759 1650 2554 
Q 1809 2350 2125 2350 
z
" transform="scale(0.015625)"/>
      </defs>
      <use xlink:href="#DejaVuSans-Bold-39"/>
     </g>
    </g>
   </g>
   <g id="text_16">
    <g clip-path="url(#pf967b418de)">
     <!-- 2 -->
     <g style="opacity: 0.5" transform="translate(286.478532 111.917425)scale(0.12 -0.12)">
      <use xlink:href="#DejaVuSans-Bold-32"/>
     </g>
    </g>
   </g>
   <g id="text_17">
    <g clip-path="url(#pf967b418de)">
     <!-- 8 -->
     <g style="opacity: 0.5" transform="translate(261.114535 70.141652)scale(0.12 -0.12)">
      <use xlink:href="#DejaVuSans-Bold-38"/>
     </g>
    </g>
   </g>
   <g id="text_18">
    <g clip-path="url(#pf967b418de)">
     <!-- 5 -->
     <g style="opacity: 0.5" transform="translate(181.436125 38.81439)scale(0.12 -0.12)">
      <use xlink:href="#DejaVuSans-Bold-35"/>
     </g>
    </g>
   </g>
   <g id="text_19">
    <g clip-path="url(#pf967b418de)">
     <!-- 4 -->
     <g style="opacity: 0.5" transform="translate(137.24041 39.669439)scale(0.12 -0.12)">
      <use xlink:href="#DejaVuSans-Bold-34"/>
     </g>
    </g>
   </g>
  </g>
 </g>
 <defs>
  <clipPath id="pf967b418de">
   <rect x="7.2" y="7.2" width="334.8" height="326.16"/>
  </clipPath>
 </defs>
</svg>
