<?xml version="1.0" encoding="utf-8" standalone="no"?>
<!DOCTYPE svg PUBLIC "-//W3C//DTD SVG 1.1//EN"
  "http://www.w3.org/Graphics/SVG/1.1/DTD/svg11.dtd">
<svg xmlns:xlink="http://www.w3.org/1999/xlink" width="684pt" height="355.678125pt" viewBox="0 0 684 355.678125" xmlns="http://www.w3.org/2000/svg" version="1.1">
 <metadata>
  <rdf:RDF xmlns:dc="http://purl.org/dc/elements/1.1/" xmlns:cc="http://creativecommons.org/ns#" xmlns:rdf="http://www.w3.org/1999/02/22-rdf-syntax-ns#">
   <cc:Work>
    <dc:type rdf:resource="http://purl.org/dc/dcmitype/StillImage"/>
    <dc:date>2022-03-28T16:36:42.196876</dc:date>
    <dc:format>image/svg+xml</dc:format>
    <dc:creator>
     <cc:Agent>
      <dc:title>Matplotlib v3.5.1, https://matplotlib.org/</dc:title>
     </cc:Agent>
    </dc:creator>
   </cc:Work>
  </rdf:RDF>
 </metadata>
 <defs>
  <style type="text/css">*{stroke-linejoin: round; stroke-linecap: butt}</style>
 </defs>
 <g id="figure_1">
  <g id="patch_1">
   <path d="M 0 355.678125 
L 684 355.678125 
L 684 0 
L 0 0 
L 0 355.678125 
z
" style="fill: none"/>
  </g>
  <g id="axes_1">
   <g id="LineCollection_1">
    <path d="M 197.531981 314.071993 
L 170.332612 258.747503 
" clip-path="url(#pa598655733)" style="fill: none; stroke: #000000; stroke-opacity: 0.5"/>
    <path d="M 129.005675 112.945737 
L 189.113717 117.816916 
" clip-path="url(#pa598655733)" style="fill: none; stroke: #000000; stroke-opacity: 0.5"/>
    <path d="M 129.005675 112.945737 
L 92.730105 168.466588 
" clip-path="url(#pa598655733)" style="fill: none; stroke: #000000; stroke-opacity: 0.5"/>
    <path d="M 129.005675 112.945737 
L 90.835844 64.878042 
" clip-path="url(#pa598655733)" style="fill: none; stroke: #000000; stroke-opacity: 0.5"/>
    <path d="M 129.005675 112.945737 
L 135.183769 50.621265 
" clip-path="url(#pa598655733)" style="fill: none; stroke: #000000; stroke-opacity: 0.5"/>
    <path d="M 110.600283 233.7707 
L 92.730105 168.466588 
" clip-path="url(#pa598655733)" style="fill: none; stroke: #000000; stroke-opacity: 0.5"/>
    <path d="M 110.600283 233.7707 
L 170.332612 258.747503 
" clip-path="url(#pa598655733)" style="fill: none; stroke: #000000; stroke-opacity: 0.5"/>
    <path d="M 110.600283 233.7707 
L 82.938696 289.797352 
" clip-path="url(#pa598655733)" style="fill: none; stroke: #000000; stroke-opacity: 0.5"/>
    <path d="M 110.600283 233.7707 
L 55.308217 257.653641 
" clip-path="url(#pa598655733)" style="fill: none; stroke: #000000; stroke-opacity: 0.5"/>
    <path d="M 225.958839 225.739105 
L 170.332612 258.747503 
" clip-path="url(#pa598655733)" style="fill: none; stroke: #000000; stroke-opacity: 0.5"/>
    <path d="M 225.958839 225.739105 
L 227.032291 161.93126 
" clip-path="url(#pa598655733)" style="fill: none; stroke: #000000; stroke-opacity: 0.5"/>
    <path d="M 225.958839 225.739105 
L 267.573421 270.489227 
" clip-path="url(#pa598655733)" style="fill: none; stroke: #000000; stroke-opacity: 0.5"/>
    <path d="M 225.958839 225.739105 
L 285.151916 225.089123 
" clip-path="url(#pa598655733)" style="fill: none; stroke: #000000; stroke-opacity: 0.5"/>
    <path d="M 241.905656 107.283596 
L 227.032291 161.93126 
" clip-path="url(#pa598655733)" style="fill: none; stroke: #000000; stroke-opacity: 0.5"/>
    <path d="M 241.905656 107.283596 
L 189.113717 117.816916 
" clip-path="url(#pa598655733)" style="fill: none; stroke: #000000; stroke-opacity: 0.5"/>
    <path d="M 241.905656 107.283596 
L 283.01546 67.68449 
" clip-path="url(#pa598655733)" style="fill: none; stroke: #000000; stroke-opacity: 0.5"/>
    <path d="M 43.259867 134.5964 
L 92.730105 168.466588 
" clip-path="url(#pa598655733)" style="fill: none; stroke: #000000; stroke-opacity: 0.5"/>
    <path d="M 33.611721 177.819888 
L 92.730105 168.466588 
" clip-path="url(#pa598655733)" style="fill: none; stroke: #000000; stroke-opacity: 0.5"/>
    <path d="M 170.332612 258.747503 
L 155.975621 320.174985 
" clip-path="url(#pa598655733)" style="fill: none; stroke: #000000; stroke-opacity: 0.5"/>
    <path d="M 189.113717 117.816916 
L 227.032291 161.93126 
" clip-path="url(#pa598655733)" style="fill: none; stroke: #000000; stroke-opacity: 0.5"/>
   </g>
   <g id="PathCollection_1">
    <defs>
     <path id="C0_0_648b46c451" d="M 0 11.470787 
C 3.042088 11.470787 5.95999 10.262152 8.111071 8.111071 
C 10.262152 5.95999 11.470787 3.042088 11.470787 -0 
C 11.470787 -3.042088 10.262152 -5.95999 8.111071 -8.111071 
C 5.95999 -10.262152 3.042088 -11.470787 0 -11.470787 
C -3.042088 -11.470787 -5.95999 -10.262152 -8.111071 -8.111071 
C -10.262152 -5.95999 -11.470787 -3.042088 -11.470787 0 
C -11.470787 3.042088 -10.262152 5.95999 -8.111071 8.111071 
C -5.95999 10.262152 -3.042088 11.470787 0 11.470787 
z
"/>
    </defs>
    <g clip-path="url(#pa598655733)">
     <use xlink:href="#C0_0_648b46c451" x="197.531981" y="314.071993" style="fill: #4062fa; fill-opacity: 0.5; stroke: #4062fa; stroke-opacity: 0.5"/>
    </g>
    <g clip-path="url(#pa598655733)">
     <use xlink:href="#C0_0_648b46c451" x="129.005675" y="112.945737" style="fill: #c0eb8d; fill-opacity: 0.5; stroke: #c0eb8d; stroke-opacity: 0.5"/>
    </g>
    <g clip-path="url(#pa598655733)">
     <use xlink:href="#C0_0_648b46c451" x="110.600283" y="233.7707" style="fill: #40ecd4; fill-opacity: 0.5; stroke: #40ecd4; stroke-opacity: 0.5"/>
    </g>
    <g clip-path="url(#pa598655733)">
     <use xlink:href="#C0_0_648b46c451" x="225.958839" y="225.739105" style="fill: #c0eb8d; fill-opacity: 0.5; stroke: #c0eb8d; stroke-opacity: 0.5"/>
    </g>
    <g clip-path="url(#pa598655733)">
     <use xlink:href="#C0_0_648b46c451" x="241.905656" y="107.283596" style="fill: #ff5f30; fill-opacity: 0.5; stroke: #ff5f30; stroke-opacity: 0.5"/>
    </g>
    <g clip-path="url(#pa598655733)">
     <use xlink:href="#C0_0_648b46c451" x="82.938696" y="289.797352" style="fill: #8000ff; fill-opacity: 0.5; stroke: #8000ff; stroke-opacity: 0.5"/>
    </g>
    <g clip-path="url(#pa598655733)">
     <use xlink:href="#C0_0_648b46c451" x="283.01546" y="67.68449" style="fill: #ff0000; fill-opacity: 0.5; stroke: #ff0000; stroke-opacity: 0.5"/>
    </g>
    <g clip-path="url(#pa598655733)">
     <use xlink:href="#C0_0_648b46c451" x="90.835844" y="64.878042" style="fill: #00b5eb; fill-opacity: 0.5; stroke: #00b5eb; stroke-opacity: 0.5"/>
    </g>
    <g clip-path="url(#pa598655733)">
     <use xlink:href="#C0_0_648b46c451" x="55.308217" y="257.653641" style="fill: #8000ff; fill-opacity: 0.5; stroke: #8000ff; stroke-opacity: 0.5"/>
    </g>
    <g clip-path="url(#pa598655733)">
     <use xlink:href="#C0_0_648b46c451" x="43.259867" y="134.5964" style="fill: #4062fa; fill-opacity: 0.5; stroke: #4062fa; stroke-opacity: 0.5"/>
    </g>
    <g clip-path="url(#pa598655733)">
     <use xlink:href="#C0_0_648b46c451" x="33.611721" y="177.819888" style="fill: #4062fa; fill-opacity: 0.5; stroke: #4062fa; stroke-opacity: 0.5"/>
    </g>
    <g clip-path="url(#pa598655733)">
     <use xlink:href="#C0_0_648b46c451" x="170.332612" y="258.747503" style="fill: #80ffb4; fill-opacity: 0.5; stroke: #80ffb4; stroke-opacity: 0.5"/>
    </g>
    <g clip-path="url(#pa598655733)">
     <use xlink:href="#C0_0_648b46c451" x="92.730105" y="168.466588" style="fill: #80ffb4; fill-opacity: 0.5; stroke: #80ffb4; stroke-opacity: 0.5"/>
    </g>
    <g clip-path="url(#pa598655733)">
     <use xlink:href="#C0_0_648b46c451" x="267.573421" y="270.489227" style="fill: #00b5eb; fill-opacity: 0.5; stroke: #00b5eb; stroke-opacity: 0.5"/>
    </g>
    <g clip-path="url(#pa598655733)">
     <use xlink:href="#C0_0_648b46c451" x="155.975621" y="320.174985" style="fill: #4062fa; fill-opacity: 0.5; stroke: #4062fa; stroke-opacity: 0.5"/>
    </g>
    <g clip-path="url(#pa598655733)">
     <use xlink:href="#C0_0_648b46c451" x="135.183769" y="50.621265" style="fill: #00b5eb; fill-opacity: 0.5; stroke: #00b5eb; stroke-opacity: 0.5"/>
    </g>
    <g clip-path="url(#pa598655733)">
     <use xlink:href="#C0_0_648b46c451" x="189.113717" y="117.816916" style="fill: #ffb360; fill-opacity: 0.5; stroke: #ffb360; stroke-opacity: 0.5"/>
    </g>
    <g clip-path="url(#pa598655733)">
     <use xlink:href="#C0_0_648b46c451" x="227.032291" y="161.93126" style="fill: #ffb360; fill-opacity: 0.5; stroke: #ffb360; stroke-opacity: 0.5"/>
    </g>
    <g clip-path="url(#pa598655733)">
     <use xlink:href="#C0_0_648b46c451" x="285.151916" y="225.089123" style="fill: #00b5eb; fill-opacity: 0.5; stroke: #00b5eb; stroke-opacity: 0.5"/>
    </g>
   </g>
   <g id="text_1">
    <g clip-path="url(#pa598655733)">
     <!-- 2 -->
     <g style="opacity: 0.5" transform="translate(193.357294 317.383243)scale(0.12 -0.12)">
      <defs>
       <path id="DejaVuSans-Bold-32" d="M 1844 884 
L 3897 884 
L 3897 0 
L 506 0 
L 506 884 
L 2209 2388 
Q 2438 2594 2547 2791 
Q 2656 2988 2656 3200 
Q 2656 3528 2436 3728 
Q 2216 3928 1850 3928 
Q 1569 3928 1234 3808 
Q 900 3688 519 3450 
L 519 4475 
Q 925 4609 1322 4679 
Q 1719 4750 2100 4750 
Q 2938 4750 3402 4381 
Q 3866 4013 3866 3353 
Q 3866 2972 3669 2642 
Q 3472 2313 2841 1759 
L 1844 884 
z
" transform="scale(0.015625)"/>
      </defs>
      <use xlink:href="#DejaVuSans-Bold-32"/>
     </g>
    </g>
   </g>
   <g id="text_2">
    <g clip-path="url(#pa598655733)">
     <!-- 13 -->
     <g style="opacity: 0.5" transform="translate(120.6563 116.256987)scale(0.12 -0.12)">
      <defs>
       <path id="DejaVuSans-Bold-31" d="M 750 831 
L 1813 831 
L 1813 3847 
L 722 3622 
L 722 4441 
L 1806 4666 
L 2950 4666 
L 2950 831 
L 4013 831 
L 4013 0 
L 750 0 
L 750 831 
z
" transform="scale(0.015625)"/>
       <path id="DejaVuSans-Bold-33" d="M 2981 2516 
Q 3453 2394 3698 2092 
Q 3944 1791 3944 1325 
Q 3944 631 3412 270 
Q 2881 -91 1863 -91 
Q 1503 -91 1142 -33 
Q 781 25 428 141 
L 428 1069 
Q 766 900 1098 814 
Q 1431 728 1753 728 
Q 2231 728 2486 893 
Q 2741 1059 2741 1369 
Q 2741 1688 2480 1852 
Q 2219 2016 1709 2016 
L 1228 2016 
L 1228 2791 
L 1734 2791 
Q 2188 2791 2409 2933 
Q 2631 3075 2631 3366 
Q 2631 3634 2415 3781 
Q 2200 3928 1806 3928 
Q 1516 3928 1219 3862 
Q 922 3797 628 3669 
L 628 4550 
Q 984 4650 1334 4700 
Q 1684 4750 2022 4750 
Q 2931 4750 3382 4451 
Q 3834 4153 3834 3553 
Q 3834 3144 3618 2883 
Q 3403 2622 2981 2516 
z
" transform="scale(0.015625)"/>
      </defs>
      <use xlink:href="#DejaVuSans-Bold-31"/>
      <use xlink:href="#DejaVuSans-Bold-33" x="69.580078"/>
     </g>
    </g>
   </g>
   <g id="text_3">
    <g clip-path="url(#pa598655733)">
     <!-- 10 -->
     <g style="opacity: 0.5" transform="translate(102.250908 237.08195)scale(0.12 -0.12)">
      <defs>
       <path id="DejaVuSans-Bold-30" d="M 2944 2338 
Q 2944 3213 2780 3570 
Q 2616 3928 2228 3928 
Q 1841 3928 1675 3570 
Q 1509 3213 1509 2338 
Q 1509 1453 1675 1090 
Q 1841 728 2228 728 
Q 2613 728 2778 1090 
Q 2944 1453 2944 2338 
z
M 4147 2328 
Q 4147 1169 3647 539 
Q 3147 -91 2228 -91 
Q 1306 -91 806 539 
Q 306 1169 306 2328 
Q 306 3491 806 4120 
Q 1306 4750 2228 4750 
Q 3147 4750 3647 4120 
Q 4147 3491 4147 2328 
z
" transform="scale(0.015625)"/>
      </defs>
      <use xlink:href="#DejaVuSans-Bold-31"/>
      <use xlink:href="#DejaVuSans-Bold-30" x="69.580078"/>
     </g>
    </g>
   </g>
   <g id="text_4">
    <g clip-path="url(#pa598655733)">
     <!-- 14 -->
     <g style="opacity: 0.5" transform="translate(217.609464 229.050355)scale(0.12 -0.12)">
      <defs>
       <path id="DejaVuSans-Bold-34" d="M 2356 3675 
L 1038 1722 
L 2356 1722 
L 2356 3675 
z
M 2156 4666 
L 3494 4666 
L 3494 1722 
L 4159 1722 
L 4159 850 
L 3494 850 
L 3494 0 
L 2356 0 
L 2356 850 
L 288 850 
L 288 1881 
L 2156 4666 
z
" transform="scale(0.015625)"/>
      </defs>
      <use xlink:href="#DejaVuSans-Bold-31"/>
      <use xlink:href="#DejaVuSans-Bold-34" x="69.580078"/>
     </g>
    </g>
   </g>
   <g id="text_5">
    <g clip-path="url(#pa598655733)">
     <!-- 17 -->
     <g style="opacity: 0.5" transform="translate(233.556281 110.594846)scale(0.12 -0.12)">
      <defs>
       <path id="DejaVuSans-Bold-37" d="M 428 4666 
L 3944 4666 
L 3944 3988 
L 2125 0 
L 953 0 
L 2675 3781 
L 428 3781 
L 428 4666 
z
" transform="scale(0.015625)"/>
      </defs>
      <use xlink:href="#DejaVuSans-Bold-31"/>
      <use xlink:href="#DejaVuSans-Bold-37" x="69.580078"/>
     </g>
    </g>
   </g>
   <g id="text_6">
    <g clip-path="url(#pa598655733)">
     <!-- 0 -->
     <g style="opacity: 0.5" transform="translate(78.764009 293.108602)scale(0.12 -0.12)">
      <use xlink:href="#DejaVuSans-Bold-30"/>
     </g>
    </g>
   </g>
   <g id="text_7">
    <g clip-path="url(#pa598655733)">
     <!-- 18 -->
     <g style="opacity: 0.5" transform="translate(274.666085 70.99574)scale(0.12 -0.12)">
      <defs>
       <path id="DejaVuSans-Bold-38" d="M 2228 2088 
Q 1891 2088 1709 1903 
Q 1528 1719 1528 1375 
Q 1528 1031 1709 848 
Q 1891 666 2228 666 
Q 2563 666 2741 848 
Q 2919 1031 2919 1375 
Q 2919 1722 2741 1905 
Q 2563 2088 2228 2088 
z
M 1350 2484 
Q 925 2613 709 2878 
Q 494 3144 494 3541 
Q 494 4131 934 4440 
Q 1375 4750 2228 4750 
Q 3075 4750 3515 4442 
Q 3956 4134 3956 3541 
Q 3956 3144 3739 2878 
Q 3522 2613 3097 2484 
Q 3572 2353 3814 2058 
Q 4056 1763 4056 1313 
Q 4056 619 3595 264 
Q 3134 -91 2228 -91 
Q 1319 -91 855 264 
Q 391 619 391 1313 
Q 391 1763 633 2058 
Q 875 2353 1350 2484 
z
M 1631 3419 
Q 1631 3141 1786 2991 
Q 1941 2841 2228 2841 
Q 2509 2841 2662 2991 
Q 2816 3141 2816 3419 
Q 2816 3697 2662 3845 
Q 2509 3994 2228 3994 
Q 1941 3994 1786 3844 
Q 1631 3694 1631 3419 
z
" transform="scale(0.015625)"/>
      </defs>
      <use xlink:href="#DejaVuSans-Bold-31"/>
      <use xlink:href="#DejaVuSans-Bold-38" x="69.580078"/>
     </g>
    </g>
   </g>
   <g id="text_8">
    <g clip-path="url(#pa598655733)">
     <!-- 6 -->
     <g style="opacity: 0.5" transform="translate(86.661156 68.189292)scale(0.12 -0.12)">
      <defs>
       <path id="DejaVuSans-Bold-36" d="M 2316 2303 
Q 2000 2303 1842 2098 
Q 1684 1894 1684 1484 
Q 1684 1075 1842 870 
Q 2000 666 2316 666 
Q 2634 666 2792 870 
Q 2950 1075 2950 1484 
Q 2950 1894 2792 2098 
Q 2634 2303 2316 2303 
z
M 3803 4544 
L 3803 3681 
Q 3506 3822 3243 3889 
Q 2981 3956 2731 3956 
Q 2194 3956 1894 3657 
Q 1594 3359 1544 2772 
Q 1750 2925 1990 3001 
Q 2231 3078 2516 3078 
Q 3231 3078 3670 2659 
Q 4109 2241 4109 1563 
Q 4109 813 3618 361 
Q 3128 -91 2303 -91 
Q 1394 -91 895 523 
Q 397 1138 397 2266 
Q 397 3422 980 4083 
Q 1563 4744 2578 4744 
Q 2900 4744 3203 4694 
Q 3506 4644 3803 4544 
z
" transform="scale(0.015625)"/>
      </defs>
      <use xlink:href="#DejaVuSans-Bold-36"/>
     </g>
    </g>
   </g>
   <g id="text_9">
    <g clip-path="url(#pa598655733)">
     <!-- 1 -->
     <g style="opacity: 0.5" transform="translate(51.133529 260.964891)scale(0.12 -0.12)">
      <use xlink:href="#DejaVuSans-Bold-31"/>
     </g>
    </g>
   </g>
   <g id="text_10">
    <g clip-path="url(#pa598655733)">
     <!-- 3 -->
     <g style="opacity: 0.5" transform="translate(39.08518 137.90765)scale(0.12 -0.12)">
      <use xlink:href="#DejaVuSans-Bold-33"/>
     </g>
    </g>
   </g>
   <g id="text_11">
    <g clip-path="url(#pa598655733)">
     <!-- 4 -->
     <g style="opacity: 0.5" transform="translate(29.437033 181.131138)scale(0.12 -0.12)">
      <use xlink:href="#DejaVuSans-Bold-34"/>
     </g>
    </g>
   </g>
   <g id="text_12">
    <g clip-path="url(#pa598655733)">
     <!-- 11 -->
     <g style="opacity: 0.5" transform="translate(161.983237 262.058753)scale(0.12 -0.12)">
      <use xlink:href="#DejaVuSans-Bold-31"/>
      <use xlink:href="#DejaVuSans-Bold-31" x="69.580078"/>
     </g>
    </g>
   </g>
   <g id="text_13">
    <g clip-path="url(#pa598655733)">
     <!-- 12 -->
     <g style="opacity: 0.5" transform="translate(84.38073 171.777838)scale(0.12 -0.12)">
      <use xlink:href="#DejaVuSans-Bold-31"/>
      <use xlink:href="#DejaVuSans-Bold-32" x="69.580078"/>
     </g>
    </g>
   </g>
   <g id="text_14">
    <g clip-path="url(#pa598655733)">
     <!-- 7 -->
     <g style="opacity: 0.5" transform="translate(263.398733 273.800477)scale(0.12 -0.12)">
      <use xlink:href="#DejaVuSans-Bold-37"/>
     </g>
    </g>
   </g>
   <g id="text_15">
    <g clip-path="url(#pa598655733)">
     <!-- 5 -->
     <g style="opacity: 0.5" transform="translate(151.800933 323.486235)scale(0.12 -0.12)">
      <defs>
       <path id="DejaVuSans-Bold-35" d="M 678 4666 
L 3669 4666 
L 3669 3781 
L 1638 3781 
L 1638 3059 
Q 1775 3097 1914 3117 
Q 2053 3138 2203 3138 
Q 3056 3138 3531 2711 
Q 4006 2284 4006 1522 
Q 4006 766 3489 337 
Q 2972 -91 2053 -91 
Q 1656 -91 1267 -14 
Q 878 63 494 219 
L 494 1166 
Q 875 947 1217 837 
Q 1559 728 1863 728 
Q 2300 728 2551 942 
Q 2803 1156 2803 1522 
Q 2803 1891 2551 2103 
Q 2300 2316 1863 2316 
Q 1603 2316 1309 2248 
Q 1016 2181 678 2041 
L 678 4666 
z
" transform="scale(0.015625)"/>
      </defs>
      <use xlink:href="#DejaVuSans-Bold-35"/>
     </g>
    </g>
   </g>
   <g id="text_16">
    <g clip-path="url(#pa598655733)">
     <!-- 8 -->
     <g style="opacity: 0.5" transform="translate(131.009081 53.932515)scale(0.12 -0.12)">
      <use xlink:href="#DejaVuSans-Bold-38"/>
     </g>
    </g>
   </g>
   <g id="text_17">
    <g clip-path="url(#pa598655733)">
     <!-- 15 -->
     <g style="opacity: 0.5" transform="translate(180.764342 121.128166)scale(0.12 -0.12)">
      <use xlink:href="#DejaVuSans-Bold-31"/>
      <use xlink:href="#DejaVuSans-Bold-35" x="69.580078"/>
     </g>
    </g>
   </g>
   <g id="text_18">
    <g clip-path="url(#pa598655733)">
     <!-- 16 -->
     <g style="opacity: 0.5" transform="translate(218.682916 165.24251)scale(0.12 -0.12)">
      <use xlink:href="#DejaVuSans-Bold-31"/>
      <use xlink:href="#DejaVuSans-Bold-36" x="69.580078"/>
     </g>
    </g>
   </g>
   <g id="text_19">
    <g clip-path="url(#pa598655733)">
     <!-- 9 -->
     <g style="opacity: 0.5" transform="translate(280.977228 228.400373)scale(0.12 -0.12)">
      <defs>
       <path id="DejaVuSans-Bold-39" d="M 641 103 
L 641 966 
Q 928 831 1190 764 
Q 1453 697 1709 697 
Q 2247 697 2547 995 
Q 2847 1294 2900 1881 
Q 2688 1725 2447 1647 
Q 2206 1569 1925 1569 
Q 1209 1569 770 1986 
Q 331 2403 331 3084 
Q 331 3838 820 4291 
Q 1309 4744 2131 4744 
Q 3044 4744 3544 4128 
Q 4044 3513 4044 2388 
Q 4044 1231 3459 570 
Q 2875 -91 1856 -91 
Q 1528 -91 1228 -42 
Q 928 6 641 103 
z
M 2125 2350 
Q 2441 2350 2600 2554 
Q 2759 2759 2759 3169 
Q 2759 3575 2600 3781 
Q 2441 3988 2125 3988 
Q 1809 3988 1650 3781 
Q 1491 3575 1491 3169 
Q 1491 2759 1650 2554 
Q 1809 2350 2125 2350 
z
" transform="scale(0.015625)"/>
      </defs>
      <use xlink:href="#DejaVuSans-Bold-39"/>
     </g>
    </g>
   </g>
   <g id="text_20">
    <!-- before canonicalization -->
    <g transform="translate(89.619631 16.318125)scale(0.12 -0.12)">
     <defs>
      <path id="DejaVuSans-62" d="M 3116 1747 
Q 3116 2381 2855 2742 
Q 2594 3103 2138 3103 
Q 1681 3103 1420 2742 
Q 1159 2381 1159 1747 
Q 1159 1113 1420 752 
Q 1681 391 2138 391 
Q 2594 391 2855 752 
Q 3116 1113 3116 1747 
z
M 1159 2969 
Q 1341 3281 1617 3432 
Q 1894 3584 2278 3584 
Q 2916 3584 3314 3078 
Q 3713 2572 3713 1747 
Q 3713 922 3314 415 
Q 2916 -91 2278 -91 
Q 1894 -91 1617 61 
Q 1341 213 1159 525 
L 1159 0 
L 581 0 
L 581 4863 
L 1159 4863 
L 1159 2969 
z
" transform="scale(0.015625)"/>
      <path id="DejaVuSans-65" d="M 3597 1894 
L 3597 1613 
L 953 1613 
Q 991 1019 1311 708 
Q 1631 397 2203 397 
Q 2534 397 2845 478 
Q 3156 559 3463 722 
L 3463 178 
Q 3153 47 2828 -22 
Q 2503 -91 2169 -91 
Q 1331 -91 842 396 
Q 353 884 353 1716 
Q 353 2575 817 3079 
Q 1281 3584 2069 3584 
Q 2775 3584 3186 3129 
Q 3597 2675 3597 1894 
z
M 3022 2063 
Q 3016 2534 2758 2815 
Q 2500 3097 2075 3097 
Q 1594 3097 1305 2825 
Q 1016 2553 972 2059 
L 3022 2063 
z
" transform="scale(0.015625)"/>
      <path id="DejaVuSans-66" d="M 2375 4863 
L 2375 4384 
L 1825 4384 
Q 1516 4384 1395 4259 
Q 1275 4134 1275 3809 
L 1275 3500 
L 2222 3500 
L 2222 3053 
L 1275 3053 
L 1275 0 
L 697 0 
L 697 3053 
L 147 3053 
L 147 3500 
L 697 3500 
L 697 3744 
Q 697 4328 969 4595 
Q 1241 4863 1831 4863 
L 2375 4863 
z
" transform="scale(0.015625)"/>
      <path id="DejaVuSans-6f" d="M 1959 3097 
Q 1497 3097 1228 2736 
Q 959 2375 959 1747 
Q 959 1119 1226 758 
Q 1494 397 1959 397 
Q 2419 397 2687 759 
Q 2956 1122 2956 1747 
Q 2956 2369 2687 2733 
Q 2419 3097 1959 3097 
z
M 1959 3584 
Q 2709 3584 3137 3096 
Q 3566 2609 3566 1747 
Q 3566 888 3137 398 
Q 2709 -91 1959 -91 
Q 1206 -91 779 398 
Q 353 888 353 1747 
Q 353 2609 779 3096 
Q 1206 3584 1959 3584 
z
" transform="scale(0.015625)"/>
      <path id="DejaVuSans-72" d="M 2631 2963 
Q 2534 3019 2420 3045 
Q 2306 3072 2169 3072 
Q 1681 3072 1420 2755 
Q 1159 2438 1159 1844 
L 1159 0 
L 581 0 
L 581 3500 
L 1159 3500 
L 1159 2956 
Q 1341 3275 1631 3429 
Q 1922 3584 2338 3584 
Q 2397 3584 2469 3576 
Q 2541 3569 2628 3553 
L 2631 2963 
z
" transform="scale(0.015625)"/>
      <path id="DejaVuSans-20" transform="scale(0.015625)"/>
      <path id="DejaVuSans-63" d="M 3122 3366 
L 3122 2828 
Q 2878 2963 2633 3030 
Q 2388 3097 2138 3097 
Q 1578 3097 1268 2742 
Q 959 2388 959 1747 
Q 959 1106 1268 751 
Q 1578 397 2138 397 
Q 2388 397 2633 464 
Q 2878 531 3122 666 
L 3122 134 
Q 2881 22 2623 -34 
Q 2366 -91 2075 -91 
Q 1284 -91 818 406 
Q 353 903 353 1747 
Q 353 2603 823 3093 
Q 1294 3584 2113 3584 
Q 2378 3584 2631 3529 
Q 2884 3475 3122 3366 
z
" transform="scale(0.015625)"/>
      <path id="DejaVuSans-61" d="M 2194 1759 
Q 1497 1759 1228 1600 
Q 959 1441 959 1056 
Q 959 750 1161 570 
Q 1363 391 1709 391 
Q 2188 391 2477 730 
Q 2766 1069 2766 1631 
L 2766 1759 
L 2194 1759 
z
M 3341 1997 
L 3341 0 
L 2766 0 
L 2766 531 
Q 2569 213 2275 61 
Q 1981 -91 1556 -91 
Q 1019 -91 701 211 
Q 384 513 384 1019 
Q 384 1609 779 1909 
Q 1175 2209 1959 2209 
L 2766 2209 
L 2766 2266 
Q 2766 2663 2505 2880 
Q 2244 3097 1772 3097 
Q 1472 3097 1187 3025 
Q 903 2953 641 2809 
L 641 3341 
Q 956 3463 1253 3523 
Q 1550 3584 1831 3584 
Q 2591 3584 2966 3190 
Q 3341 2797 3341 1997 
z
" transform="scale(0.015625)"/>
      <path id="DejaVuSans-6e" d="M 3513 2113 
L 3513 0 
L 2938 0 
L 2938 2094 
Q 2938 2591 2744 2837 
Q 2550 3084 2163 3084 
Q 1697 3084 1428 2787 
Q 1159 2491 1159 1978 
L 1159 0 
L 581 0 
L 581 3500 
L 1159 3500 
L 1159 2956 
Q 1366 3272 1645 3428 
Q 1925 3584 2291 3584 
Q 2894 3584 3203 3211 
Q 3513 2838 3513 2113 
z
" transform="scale(0.015625)"/>
      <path id="DejaVuSans-69" d="M 603 3500 
L 1178 3500 
L 1178 0 
L 603 0 
L 603 3500 
z
M 603 4863 
L 1178 4863 
L 1178 4134 
L 603 4134 
L 603 4863 
z
" transform="scale(0.015625)"/>
      <path id="DejaVuSans-6c" d="M 603 4863 
L 1178 4863 
L 1178 0 
L 603 0 
L 603 4863 
z
" transform="scale(0.015625)"/>
      <path id="DejaVuSans-7a" d="M 353 3500 
L 3084 3500 
L 3084 2975 
L 922 459 
L 3084 459 
L 3084 0 
L 275 0 
L 275 525 
L 2438 3041 
L 353 3041 
L 353 3500 
z
" transform="scale(0.015625)"/>
      <path id="DejaVuSans-74" d="M 1172 4494 
L 1172 3500 
L 2356 3500 
L 2356 3053 
L 1172 3053 
L 1172 1153 
Q 1172 725 1289 603 
Q 1406 481 1766 481 
L 2356 481 
L 2356 0 
L 1766 0 
Q 1100 0 847 248 
Q 594 497 594 1153 
L 594 3053 
L 172 3053 
L 172 3500 
L 594 3500 
L 594 4494 
L 1172 4494 
z
" transform="scale(0.015625)"/>
     </defs>
     <use xlink:href="#DejaVuSans-62"/>
     <use xlink:href="#DejaVuSans-65" x="63.476562"/>
     <use xlink:href="#DejaVuSans-66" x="125"/>
     <use xlink:href="#DejaVuSans-6f" x="160.205078"/>
     <use xlink:href="#DejaVuSans-72" x="221.386719"/>
     <use xlink:href="#DejaVuSans-65" x="260.25"/>
     <use xlink:href="#DejaVuSans-20" x="321.773438"/>
     <use xlink:href="#DejaVuSans-63" x="353.560547"/>
     <use xlink:href="#DejaVuSans-61" x="408.541016"/>
     <use xlink:href="#DejaVuSans-6e" x="469.820312"/>
     <use xlink:href="#DejaVuSans-6f" x="533.199219"/>
     <use xlink:href="#DejaVuSans-6e" x="594.380859"/>
     <use xlink:href="#DejaVuSans-69" x="657.759766"/>
     <use xlink:href="#DejaVuSans-63" x="685.542969"/>
     <use xlink:href="#DejaVuSans-61" x="740.523438"/>
     <use xlink:href="#DejaVuSans-6c" x="801.802734"/>
     <use xlink:href="#DejaVuSans-69" x="829.585938"/>
     <use xlink:href="#DejaVuSans-7a" x="857.369141"/>
     <use xlink:href="#DejaVuSans-61" x="909.859375"/>
     <use xlink:href="#DejaVuSans-74" x="971.138672"/>
     <use xlink:href="#DejaVuSans-69" x="1010.347656"/>
     <use xlink:href="#DejaVuSans-6f" x="1038.130859"/>
     <use xlink:href="#DejaVuSans-6e" x="1099.3125"/>
    </g>
   </g>
  </g>
  <g id="axes_2">
   <g id="LineCollection_2">
    <path d="M 562.768345 314.071993 
L 535.568975 258.747503 
" clip-path="url(#p27542b893a)" style="fill: none; stroke: #000000; stroke-opacity: 0.5"/>
    <path d="M 494.242039 112.945737 
L 554.350081 117.816916 
" clip-path="url(#p27542b893a)" style="fill: none; stroke: #000000; stroke-opacity: 0.5"/>
    <path d="M 494.242039 112.945737 
L 457.966468 168.466588 
" clip-path="url(#p27542b893a)" style="fill: none; stroke: #000000; stroke-opacity: 0.5"/>
    <path d="M 494.242039 112.945737 
L 456.072207 64.878042 
" clip-path="url(#p27542b893a)" style="fill: none; stroke: #000000; stroke-opacity: 0.5"/>
    <path d="M 494.242039 112.945737 
L 500.420133 50.621265 
" clip-path="url(#p27542b893a)" style="fill: none; stroke: #000000; stroke-opacity: 0.5"/>
    <path d="M 475.836647 233.7707 
L 457.966468 168.466588 
" clip-path="url(#p27542b893a)" style="fill: none; stroke: #000000; stroke-opacity: 0.5"/>
    <path d="M 475.836647 233.7707 
L 535.568975 258.747503 
" clip-path="url(#p27542b893a)" style="fill: none; stroke: #000000; stroke-opacity: 0.5"/>
    <path d="M 475.836647 233.7707 
L 448.17506 289.797352 
" clip-path="url(#p27542b893a)" style="fill: none; stroke: #000000; stroke-opacity: 0.5"/>
    <path d="M 475.836647 233.7707 
L 420.544581 257.653641 
" clip-path="url(#p27542b893a)" style="fill: none; stroke: #000000; stroke-opacity: 0.5"/>
    <path d="M 591.195203 225.739105 
L 535.568975 258.747503 
" clip-path="url(#p27542b893a)" style="fill: none; stroke: #000000; stroke-opacity: 0.5"/>
    <path d="M 591.195203 225.739105 
L 592.268654 161.93126 
" clip-path="url(#p27542b893a)" style="fill: none; stroke: #000000; stroke-opacity: 0.5"/>
    <path d="M 591.195203 225.739105 
L 632.809784 270.489227 
" clip-path="url(#p27542b893a)" style="fill: none; stroke: #000000; stroke-opacity: 0.5"/>
    <path d="M 591.195203 225.739105 
L 650.388279 225.089123 
" clip-path="url(#p27542b893a)" style="fill: none; stroke: #000000; stroke-opacity: 0.5"/>
    <path d="M 607.14202 107.283596 
L 592.268654 161.93126 
" clip-path="url(#p27542b893a)" style="fill: none; stroke: #000000; stroke-opacity: 0.5"/>
    <path d="M 607.14202 107.283596 
L 554.350081 117.816916 
" clip-path="url(#p27542b893a)" style="fill: none; stroke: #000000; stroke-opacity: 0.5"/>
    <path d="M 607.14202 107.283596 
L 648.251824 67.68449 
" clip-path="url(#p27542b893a)" style="fill: none; stroke: #000000; stroke-opacity: 0.5"/>
    <path d="M 408.496231 134.5964 
L 457.966468 168.466588 
" clip-path="url(#p27542b893a)" style="fill: none; stroke: #000000; stroke-opacity: 0.5"/>
    <path d="M 398.848084 177.819888 
L 457.966468 168.466588 
" clip-path="url(#p27542b893a)" style="fill: none; stroke: #000000; stroke-opacity: 0.5"/>
    <path d="M 535.568975 258.747503 
L 521.211984 320.174985 
" clip-path="url(#p27542b893a)" style="fill: none; stroke: #000000; stroke-opacity: 0.5"/>
    <path d="M 554.350081 117.816916 
L 592.268654 161.93126 
" clip-path="url(#p27542b893a)" style="fill: none; stroke: #000000; stroke-opacity: 0.5"/>
   </g>
   <g id="PathCollection_2">
    <defs>
     <path id="C1_0_82bebd9232" d="M 0 11.470787 
C 3.042088 11.470787 5.95999 10.262152 8.111071 8.111071 
C 10.262152 5.95999 11.470787 3.042088 11.470787 -0 
C 11.470787 -3.042088 10.262152 -5.95999 8.111071 -8.111071 
C 5.95999 -10.262152 3.042088 -11.470787 0 -11.470787 
C -3.042088 -11.470787 -5.95999 -10.262152 -8.111071 -8.111071 
C -10.262152 -5.95999 -11.470787 -3.042088 -11.470787 0 
C -11.470787 3.042088 -10.262152 5.95999 -8.111071 8.111071 
C -5.95999 10.262152 -3.042088 11.470787 0 11.470787 
z
"/>
    </defs>
    <g clip-path="url(#p27542b893a)">
     <use xlink:href="#C1_0_82bebd9232" x="562.768345" y="314.071993" style="fill: #4062fa; fill-opacity: 0.5; stroke: #4062fa; stroke-opacity: 0.5"/>
    </g>
    <g clip-path="url(#p27542b893a)">
     <use xlink:href="#C1_0_82bebd9232" x="494.242039" y="112.945737" style="fill: #c0eb8d; fill-opacity: 0.5; stroke: #c0eb8d; stroke-opacity: 0.5"/>
    </g>
    <g clip-path="url(#p27542b893a)">
     <use xlink:href="#C1_0_82bebd9232" x="475.836647" y="233.7707" style="fill: #40ecd4; fill-opacity: 0.5; stroke: #40ecd4; stroke-opacity: 0.5"/>
    </g>
    <g clip-path="url(#p27542b893a)">
     <use xlink:href="#C1_0_82bebd9232" x="591.195203" y="225.739105" style="fill: #c0eb8d; fill-opacity: 0.5; stroke: #c0eb8d; stroke-opacity: 0.5"/>
    </g>
    <g clip-path="url(#p27542b893a)">
     <use xlink:href="#C1_0_82bebd9232" x="607.14202" y="107.283596" style="fill: #ff5f30; fill-opacity: 0.5; stroke: #ff5f30; stroke-opacity: 0.5"/>
    </g>
    <g clip-path="url(#p27542b893a)">
     <use xlink:href="#C1_0_82bebd9232" x="448.17506" y="289.797352" style="fill: #8000ff; fill-opacity: 0.5; stroke: #8000ff; stroke-opacity: 0.5"/>
    </g>
    <g clip-path="url(#p27542b893a)">
     <use xlink:href="#C1_0_82bebd9232" x="648.251824" y="67.68449" style="fill: #ff0000; fill-opacity: 0.5; stroke: #ff0000; stroke-opacity: 0.5"/>
    </g>
    <g clip-path="url(#p27542b893a)">
     <use xlink:href="#C1_0_82bebd9232" x="456.072207" y="64.878042" style="fill: #00b5eb; fill-opacity: 0.5; stroke: #00b5eb; stroke-opacity: 0.5"/>
    </g>
    <g clip-path="url(#p27542b893a)">
     <use xlink:href="#C1_0_82bebd9232" x="420.544581" y="257.653641" style="fill: #8000ff; fill-opacity: 0.5; stroke: #8000ff; stroke-opacity: 0.5"/>
    </g>
    <g clip-path="url(#p27542b893a)">
     <use xlink:href="#C1_0_82bebd9232" x="408.496231" y="134.5964" style="fill: #4062fa; fill-opacity: 0.5; stroke: #4062fa; stroke-opacity: 0.5"/>
    </g>
    <g clip-path="url(#p27542b893a)">
     <use xlink:href="#C1_0_82bebd9232" x="398.848084" y="177.819888" style="fill: #4062fa; fill-opacity: 0.5; stroke: #4062fa; stroke-opacity: 0.5"/>
    </g>
    <g clip-path="url(#p27542b893a)">
     <use xlink:href="#C1_0_82bebd9232" x="535.568975" y="258.747503" style="fill: #80ffb4; fill-opacity: 0.5; stroke: #80ffb4; stroke-opacity: 0.5"/>
    </g>
    <g clip-path="url(#p27542b893a)">
     <use xlink:href="#C1_0_82bebd9232" x="457.966468" y="168.466588" style="fill: #80ffb4; fill-opacity: 0.5; stroke: #80ffb4; stroke-opacity: 0.5"/>
    </g>
    <g clip-path="url(#p27542b893a)">
     <use xlink:href="#C1_0_82bebd9232" x="632.809784" y="270.489227" style="fill: #00b5eb; fill-opacity: 0.5; stroke: #00b5eb; stroke-opacity: 0.5"/>
    </g>
    <g clip-path="url(#p27542b893a)">
     <use xlink:href="#C1_0_82bebd9232" x="521.211984" y="320.174985" style="fill: #4062fa; fill-opacity: 0.5; stroke: #4062fa; stroke-opacity: 0.5"/>
    </g>
    <g clip-path="url(#p27542b893a)">
     <use xlink:href="#C1_0_82bebd9232" x="500.420133" y="50.621265" style="fill: #00b5eb; fill-opacity: 0.5; stroke: #00b5eb; stroke-opacity: 0.5"/>
    </g>
    <g clip-path="url(#p27542b893a)">
     <use xlink:href="#C1_0_82bebd9232" x="554.350081" y="117.816916" style="fill: #ffb360; fill-opacity: 0.5; stroke: #ffb360; stroke-opacity: 0.5"/>
    </g>
    <g clip-path="url(#p27542b893a)">
     <use xlink:href="#C1_0_82bebd9232" x="592.268654" y="161.93126" style="fill: #ffb360; fill-opacity: 0.5; stroke: #ffb360; stroke-opacity: 0.5"/>
    </g>
    <g clip-path="url(#p27542b893a)">
     <use xlink:href="#C1_0_82bebd9232" x="650.388279" y="225.089123" style="fill: #00b5eb; fill-opacity: 0.5; stroke: #00b5eb; stroke-opacity: 0.5"/>
    </g>
   </g>
   <g id="text_21">
    <g clip-path="url(#p27542b893a)">
     <!-- 2 -->
     <g style="opacity: 0.5" transform="translate(558.593657 317.383243)scale(0.12 -0.12)">
      <use xlink:href="#DejaVuSans-Bold-32"/>
     </g>
    </g>
   </g>
   <g id="text_22">
    <g clip-path="url(#p27542b893a)">
     <!-- 14 -->
     <g style="opacity: 0.5" transform="translate(485.892664 116.256987)scale(0.12 -0.12)">
      <use xlink:href="#DejaVuSans-Bold-31"/>
      <use xlink:href="#DejaVuSans-Bold-34" x="69.580078"/>
     </g>
    </g>
   </g>
   <g id="text_23">
    <g clip-path="url(#p27542b893a)">
     <!-- 10 -->
     <g style="opacity: 0.5" transform="translate(467.487272 237.08195)scale(0.12 -0.12)">
      <use xlink:href="#DejaVuSans-Bold-31"/>
      <use xlink:href="#DejaVuSans-Bold-30" x="69.580078"/>
     </g>
    </g>
   </g>
   <g id="text_24">
    <g clip-path="url(#p27542b893a)">
     <!-- 13 -->
     <g style="opacity: 0.5" transform="translate(582.845828 229.050355)scale(0.12 -0.12)">
      <use xlink:href="#DejaVuSans-Bold-31"/>
      <use xlink:href="#DejaVuSans-Bold-33" x="69.580078"/>
     </g>
    </g>
   </g>
   <g id="text_25">
    <g clip-path="url(#p27542b893a)">
     <!-- 17 -->
     <g style="opacity: 0.5" transform="translate(598.792645 110.594846)scale(0.12 -0.12)">
      <use xlink:href="#DejaVuSans-Bold-31"/>
      <use xlink:href="#DejaVuSans-Bold-37" x="69.580078"/>
     </g>
    </g>
   </g>
   <g id="text_26">
    <g clip-path="url(#p27542b893a)">
     <!-- 0 -->
     <g style="opacity: 0.5" transform="translate(444.000372 293.108602)scale(0.12 -0.12)">
      <use xlink:href="#DejaVuSans-Bold-30"/>
     </g>
    </g>
   </g>
   <g id="text_27">
    <g clip-path="url(#p27542b893a)">
     <!-- 18 -->
     <g style="opacity: 0.5" transform="translate(639.902449 70.99574)scale(0.12 -0.12)">
      <use xlink:href="#DejaVuSans-Bold-31"/>
      <use xlink:href="#DejaVuSans-Bold-38" x="69.580078"/>
     </g>
    </g>
   </g>
   <g id="text_28">
    <g clip-path="url(#p27542b893a)">
     <!-- 8 -->
     <g style="opacity: 0.5" transform="translate(451.89752 68.189292)scale(0.12 -0.12)">
      <use xlink:href="#DejaVuSans-Bold-38"/>
     </g>
    </g>
   </g>
   <g id="text_29">
    <g clip-path="url(#p27542b893a)">
     <!-- 1 -->
     <g style="opacity: 0.5" transform="translate(416.369893 260.964891)scale(0.12 -0.12)">
      <use xlink:href="#DejaVuSans-Bold-31"/>
     </g>
    </g>
   </g>
   <g id="text_30">
    <g clip-path="url(#p27542b893a)">
     <!-- 4 -->
     <g style="opacity: 0.5" transform="translate(404.321543 137.90765)scale(0.12 -0.12)">
      <use xlink:href="#DejaVuSans-Bold-34"/>
     </g>
    </g>
   </g>
   <g id="text_31">
    <g clip-path="url(#p27542b893a)">
     <!-- 5 -->
     <g style="opacity: 0.5" transform="translate(394.673397 181.131138)scale(0.12 -0.12)">
      <use xlink:href="#DejaVuSans-Bold-35"/>
     </g>
    </g>
   </g>
   <g id="text_32">
    <g clip-path="url(#p27542b893a)">
     <!-- 11 -->
     <g style="opacity: 0.5" transform="translate(527.2196 262.058753)scale(0.12 -0.12)">
      <use xlink:href="#DejaVuSans-Bold-31"/>
      <use xlink:href="#DejaVuSans-Bold-31" x="69.580078"/>
     </g>
    </g>
   </g>
   <g id="text_33">
    <g clip-path="url(#p27542b893a)">
     <!-- 12 -->
     <g style="opacity: 0.5" transform="translate(449.617093 171.777838)scale(0.12 -0.12)">
      <use xlink:href="#DejaVuSans-Bold-31"/>
      <use xlink:href="#DejaVuSans-Bold-32" x="69.580078"/>
     </g>
    </g>
   </g>
   <g id="text_34">
    <g clip-path="url(#p27542b893a)">
     <!-- 6 -->
     <g style="opacity: 0.5" transform="translate(628.635097 273.800477)scale(0.12 -0.12)">
      <use xlink:href="#DejaVuSans-Bold-36"/>
     </g>
    </g>
   </g>
   <g id="text_35">
    <g clip-path="url(#p27542b893a)">
     <!-- 3 -->
     <g style="opacity: 0.5" transform="translate(517.037297 323.486235)scale(0.12 -0.12)">
      <use xlink:href="#DejaVuSans-Bold-33"/>
     </g>
    </g>
   </g>
   <g id="text_36">
    <g clip-path="url(#p27542b893a)">
     <!-- 9 -->
     <g style="opacity: 0.5" transform="translate(496.245445 53.932515)scale(0.12 -0.12)">
      <use xlink:href="#DejaVuSans-Bold-39"/>
     </g>
    </g>
   </g>
   <g id="text_37">
    <g clip-path="url(#p27542b893a)">
     <!-- 16 -->
     <g style="opacity: 0.5" transform="translate(546.000706 121.128166)scale(0.12 -0.12)">
      <use xlink:href="#DejaVuSans-Bold-31"/>
      <use xlink:href="#DejaVuSans-Bold-36" x="69.580078"/>
     </g>
    </g>
   </g>
   <g id="text_38">
    <g clip-path="url(#p27542b893a)">
     <!-- 15 -->
     <g style="opacity: 0.5" transform="translate(583.919279 165.24251)scale(0.12 -0.12)">
      <use xlink:href="#DejaVuSans-Bold-31"/>
      <use xlink:href="#DejaVuSans-Bold-35" x="69.580078"/>
     </g>
    </g>
   </g>
   <g id="text_39">
    <g clip-path="url(#p27542b893a)">
     <!-- 7 -->
     <g style="opacity: 0.5" transform="translate(646.213592 228.400373)scale(0.12 -0.12)">
      <use xlink:href="#DejaVuSans-Bold-37"/>
     </g>
    </g>
   </g>
   <g id="text_40">
    <!-- canonicalized -->
    <g transform="translate(483.739432 16.318125)scale(0.12 -0.12)">
     <defs>
      <path id="DejaVuSans-64" d="M 2906 2969 
L 2906 4863 
L 3481 4863 
L 3481 0 
L 2906 0 
L 2906 525 
Q 2725 213 2448 61 
Q 2172 -91 1784 -91 
Q 1150 -91 751 415 
Q 353 922 353 1747 
Q 353 2572 751 3078 
Q 1150 3584 1784 3584 
Q 2172 3584 2448 3432 
Q 2725 3281 2906 2969 
z
M 947 1747 
Q 947 1113 1208 752 
Q 1469 391 1925 391 
Q 2381 391 2643 752 
Q 2906 1113 2906 1747 
Q 2906 2381 2643 2742 
Q 2381 3103 1925 3103 
Q 1469 3103 1208 2742 
Q 947 2381 947 1747 
z
" transform="scale(0.015625)"/>
     </defs>
     <use xlink:href="#DejaVuSans-63"/>
     <use xlink:href="#DejaVuSans-61" x="54.980469"/>
     <use xlink:href="#DejaVuSans-6e" x="116.259766"/>
     <use xlink:href="#DejaVuSans-6f" x="179.638672"/>
     <use xlink:href="#DejaVuSans-6e" x="240.820312"/>
     <use xlink:href="#DejaVuSans-69" x="304.199219"/>
     <use xlink:href="#DejaVuSans-63" x="331.982422"/>
     <use xlink:href="#DejaVuSans-61" x="386.962891"/>
     <use xlink:href="#DejaVuSans-6c" x="448.242188"/>
     <use xlink:href="#DejaVuSans-69" x="476.025391"/>
     <use xlink:href="#DejaVuSans-7a" x="503.808594"/>
     <use xlink:href="#DejaVuSans-65" x="556.298828"/>
     <use xlink:href="#DejaVuSans-64" x="617.822266"/>
    </g>
   </g>
  </g>
 </g>
 <defs>
  <clipPath id="pa598655733">
   <rect x="7.2" y="22.318125" width="304.363636" height="326.16"/>
  </clipPath>
  <clipPath id="p27542b893a">
   <rect x="372.436364" y="22.318125" width="304.363636" height="326.16"/>
  </clipPath>
 </defs>
</svg>
