<?xml version="1.0" encoding="utf-8" standalone="no"?>
<!DOCTYPE svg PUBLIC "-//W3C//DTD SVG 1.1//EN"
  "http://www.w3.org/Graphics/SVG/1.1/DTD/svg11.dtd">
<svg xmlns:xlink="http://www.w3.org/1999/xlink" width="349.2pt" height="340.56pt" viewBox="0 0 349.2 340.56" xmlns="http://www.w3.org/2000/svg" version="1.1">
 <metadata>
  <rdf:RDF xmlns:dc="http://purl.org/dc/elements/1.1/" xmlns:cc="http://creativecommons.org/ns#" xmlns:rdf="http://www.w3.org/1999/02/22-rdf-syntax-ns#">
   <cc:Work>
    <dc:type rdf:resource="http://purl.org/dc/dcmitype/StillImage"/>
    <dc:date>2022-03-28T16:36:30.888216</dc:date>
    <dc:format>image/svg+xml</dc:format>
    <dc:creator>
     <cc:Agent>
      <dc:title>Matplotlib v3.5.1, https://matplotlib.org/</dc:title>
     </cc:Agent>
    </dc:creator>
   </cc:Work>
  </rdf:RDF>
 </metadata>
 <defs>
  <style type="text/css">*{stroke-linejoin: round; stroke-linecap: butt}</style>
 </defs>
 <g id="figure_1">
  <g id="patch_1">
   <path d="M 0 340.56 
L 349.2 340.56 
L 349.2 0 
L 0 0 
L 0 340.56 
z
" style="fill: none"/>
  </g>
  <g id="axes_1">
   <g id="LineCollection_1">
    <path d="M 216.565179 298.953868 
L 186.645873 243.629378 
" clip-path="url(#p7e2df9dc0c)" style="fill: none; stroke: #000000; stroke-opacity: 0.5"/>
    <path d="M 141.186242 97.827612 
L 207.305089 102.698791 
" clip-path="url(#p7e2df9dc0c)" style="fill: none; stroke: #000000; stroke-opacity: 0.5"/>
    <path d="M 141.186242 97.827612 
L 101.283115 153.348463 
" clip-path="url(#p7e2df9dc0c)" style="fill: none; stroke: #000000; stroke-opacity: 0.5"/>
    <path d="M 141.186242 97.827612 
L 99.199428 49.759917 
" clip-path="url(#p7e2df9dc0c)" style="fill: none; stroke: #000000; stroke-opacity: 0.5"/>
    <path d="M 141.186242 97.827612 
L 147.982146 35.50314 
" clip-path="url(#p7e2df9dc0c)" style="fill: none; stroke: #000000; stroke-opacity: 0.5"/>
    <path d="M 120.940312 218.652575 
L 101.283115 153.348463 
" clip-path="url(#p7e2df9dc0c)" style="fill: none; stroke: #000000; stroke-opacity: 0.5"/>
    <path d="M 120.940312 218.652575 
L 186.645873 243.629378 
" clip-path="url(#p7e2df9dc0c)" style="fill: none; stroke: #000000; stroke-opacity: 0.5"/>
    <path d="M 120.940312 218.652575 
L 90.512566 274.679227 
" clip-path="url(#p7e2df9dc0c)" style="fill: none; stroke: #000000; stroke-opacity: 0.5"/>
    <path d="M 120.940312 218.652575 
L 60.119039 242.535516 
" clip-path="url(#p7e2df9dc0c)" style="fill: none; stroke: #000000; stroke-opacity: 0.5"/>
    <path d="M 247.834723 210.62098 
L 186.645873 243.629378 
" clip-path="url(#p7e2df9dc0c)" style="fill: none; stroke: #000000; stroke-opacity: 0.5"/>
    <path d="M 247.834723 210.62098 
L 249.01552 146.813135 
" clip-path="url(#p7e2df9dc0c)" style="fill: none; stroke: #000000; stroke-opacity: 0.5"/>
    <path d="M 247.834723 210.62098 
L 293.610763 255.371102 
" clip-path="url(#p7e2df9dc0c)" style="fill: none; stroke: #000000; stroke-opacity: 0.5"/>
    <path d="M 247.834723 210.62098 
L 312.947107 209.970998 
" clip-path="url(#p7e2df9dc0c)" style="fill: none; stroke: #000000; stroke-opacity: 0.5"/>
    <path d="M 265.376222 92.165471 
L 249.01552 146.813135 
" clip-path="url(#p7e2df9dc0c)" style="fill: none; stroke: #000000; stroke-opacity: 0.5"/>
    <path d="M 265.376222 92.165471 
L 207.305089 102.698791 
" clip-path="url(#p7e2df9dc0c)" style="fill: none; stroke: #000000; stroke-opacity: 0.5"/>
    <path d="M 265.376222 92.165471 
L 310.597007 52.566365 
" clip-path="url(#p7e2df9dc0c)" style="fill: none; stroke: #000000; stroke-opacity: 0.5"/>
    <path d="M 46.865854 119.478275 
L 101.283115 153.348463 
" clip-path="url(#p7e2df9dc0c)" style="fill: none; stroke: #000000; stroke-opacity: 0.5"/>
    <path d="M 36.252893 162.701763 
L 101.283115 153.348463 
" clip-path="url(#p7e2df9dc0c)" style="fill: none; stroke: #000000; stroke-opacity: 0.5"/>
    <path d="M 186.645873 243.629378 
L 170.853183 305.05686 
" clip-path="url(#p7e2df9dc0c)" style="fill: none; stroke: #000000; stroke-opacity: 0.5"/>
    <path d="M 207.305089 102.698791 
L 249.01552 146.813135 
" clip-path="url(#p7e2df9dc0c)" style="fill: none; stroke: #000000; stroke-opacity: 0.5"/>
   </g>
   <g id="PathCollection_1">
    <defs>
     <path id="C0_0_c9441c842e" d="M 0 11.470787 
C 3.042088 11.470787 5.95999 10.262152 8.111071 8.111071 
C 10.262152 5.95999 11.470787 3.042088 11.470787 -0 
C 11.470787 -3.042088 10.262152 -5.95999 8.111071 -8.111071 
C 5.95999 -10.262152 3.042088 -11.470787 0 -11.470787 
C -3.042088 -11.470787 -5.95999 -10.262152 -8.111071 -8.111071 
C -10.262152 -5.95999 -11.470787 -3.042088 -11.470787 0 
C -11.470787 3.042088 -10.262152 5.95999 -8.111071 8.111071 
C -5.95999 10.262152 -3.042088 11.470787 0 11.470787 
z
"/>
    </defs>
    <g clip-path="url(#p7e2df9dc0c)">
     <use xlink:href="#C0_0_c9441c842e" x="216.565179" y="298.953868" style="fill: #4062fa; fill-opacity: 0.5; stroke: #4062fa; stroke-opacity: 0.5"/>
    </g>
    <g clip-path="url(#p7e2df9dc0c)">
     <use xlink:href="#C0_0_c9441c842e" x="141.186242" y="97.827612" style="fill: #c0eb8d; fill-opacity: 0.5; stroke: #c0eb8d; stroke-opacity: 0.5"/>
    </g>
    <g clip-path="url(#p7e2df9dc0c)">
     <use xlink:href="#C0_0_c9441c842e" x="120.940312" y="218.652575" style="fill: #40ecd4; fill-opacity: 0.5; stroke: #40ecd4; stroke-opacity: 0.5"/>
    </g>
    <g clip-path="url(#p7e2df9dc0c)">
     <use xlink:href="#C0_0_c9441c842e" x="247.834723" y="210.62098" style="fill: #c0eb8d; fill-opacity: 0.5; stroke: #c0eb8d; stroke-opacity: 0.5"/>
    </g>
    <g clip-path="url(#p7e2df9dc0c)">
     <use xlink:href="#C0_0_c9441c842e" x="265.376222" y="92.165471" style="fill: #ff5f30; fill-opacity: 0.5; stroke: #ff5f30; stroke-opacity: 0.5"/>
    </g>
    <g clip-path="url(#p7e2df9dc0c)">
     <use xlink:href="#C0_0_c9441c842e" x="90.512566" y="274.679227" style="fill: #8000ff; fill-opacity: 0.5; stroke: #8000ff; stroke-opacity: 0.5"/>
    </g>
    <g clip-path="url(#p7e2df9dc0c)">
     <use xlink:href="#C0_0_c9441c842e" x="310.597007" y="52.566365" style="fill: #ff0000; fill-opacity: 0.5; stroke: #ff0000; stroke-opacity: 0.5"/>
    </g>
    <g clip-path="url(#p7e2df9dc0c)">
     <use xlink:href="#C0_0_c9441c842e" x="99.199428" y="49.759917" style="fill: #00b5eb; fill-opacity: 0.5; stroke: #00b5eb; stroke-opacity: 0.5"/>
    </g>
    <g clip-path="url(#p7e2df9dc0c)">
     <use xlink:href="#C0_0_c9441c842e" x="60.119039" y="242.535516" style="fill: #8000ff; fill-opacity: 0.5; stroke: #8000ff; stroke-opacity: 0.5"/>
    </g>
    <g clip-path="url(#p7e2df9dc0c)">
     <use xlink:href="#C0_0_c9441c842e" x="46.865854" y="119.478275" style="fill: #4062fa; fill-opacity: 0.5; stroke: #4062fa; stroke-opacity: 0.5"/>
    </g>
    <g clip-path="url(#p7e2df9dc0c)">
     <use xlink:href="#C0_0_c9441c842e" x="36.252893" y="162.701763" style="fill: #4062fa; fill-opacity: 0.5; stroke: #4062fa; stroke-opacity: 0.5"/>
    </g>
    <g clip-path="url(#p7e2df9dc0c)">
     <use xlink:href="#C0_0_c9441c842e" x="186.645873" y="243.629378" style="fill: #80ffb4; fill-opacity: 0.5; stroke: #80ffb4; stroke-opacity: 0.5"/>
    </g>
    <g clip-path="url(#p7e2df9dc0c)">
     <use xlink:href="#C0_0_c9441c842e" x="101.283115" y="153.348463" style="fill: #80ffb4; fill-opacity: 0.5; stroke: #80ffb4; stroke-opacity: 0.5"/>
    </g>
    <g clip-path="url(#p7e2df9dc0c)">
     <use xlink:href="#C0_0_c9441c842e" x="293.610763" y="255.371102" style="fill: #00b5eb; fill-opacity: 0.5; stroke: #00b5eb; stroke-opacity: 0.5"/>
    </g>
    <g clip-path="url(#p7e2df9dc0c)">
     <use xlink:href="#C0_0_c9441c842e" x="170.853183" y="305.05686" style="fill: #4062fa; fill-opacity: 0.5; stroke: #4062fa; stroke-opacity: 0.5"/>
    </g>
    <g clip-path="url(#p7e2df9dc0c)">
     <use xlink:href="#C0_0_c9441c842e" x="147.982146" y="35.50314" style="fill: #00b5eb; fill-opacity: 0.5; stroke: #00b5eb; stroke-opacity: 0.5"/>
    </g>
    <g clip-path="url(#p7e2df9dc0c)">
     <use xlink:href="#C0_0_c9441c842e" x="207.305089" y="102.698791" style="fill: #ffb360; fill-opacity: 0.5; stroke: #ffb360; stroke-opacity: 0.5"/>
    </g>
    <g clip-path="url(#p7e2df9dc0c)">
     <use xlink:href="#C0_0_c9441c842e" x="249.01552" y="146.813135" style="fill: #ffb360; fill-opacity: 0.5; stroke: #ffb360; stroke-opacity: 0.5"/>
    </g>
    <g clip-path="url(#p7e2df9dc0c)">
     <use xlink:href="#C0_0_c9441c842e" x="312.947107" y="209.970998" style="fill: #00b5eb; fill-opacity: 0.5; stroke: #00b5eb; stroke-opacity: 0.5"/>
    </g>
   </g>
   <g id="text_1">
    <g clip-path="url(#p7e2df9dc0c)">
     <!-- 2 -->
     <g style="opacity: 0.5" transform="translate(212.390492 302.265118)scale(0.12 -0.12)">
      <defs>
       <path id="DejaVuSans-Bold-32" d="M 1844 884 
L 3897 884 
L 3897 0 
L 506 0 
L 506 884 
L 2209 2388 
Q 2438 2594 2547 2791 
Q 2656 2988 2656 3200 
Q 2656 3528 2436 3728 
Q 2216 3928 1850 3928 
Q 1569 3928 1234 3808 
Q 900 3688 519 3450 
L 519 4475 
Q 925 4609 1322 4679 
Q 1719 4750 2100 4750 
Q 2938 4750 3402 4381 
Q 3866 4013 3866 3353 
Q 3866 2972 3669 2642 
Q 3472 2313 2841 1759 
L 1844 884 
z
" transform="scale(0.015625)"/>
      </defs>
      <use xlink:href="#DejaVuSans-Bold-32"/>
     </g>
    </g>
   </g>
   <g id="text_2">
    <g clip-path="url(#p7e2df9dc0c)">
     <!-- 13 -->
     <g style="opacity: 0.5" transform="translate(132.836867 101.138862)scale(0.12 -0.12)">
      <defs>
       <path id="DejaVuSans-Bold-31" d="M 750 831 
L 1813 831 
L 1813 3847 
L 722 3622 
L 722 4441 
L 1806 4666 
L 2950 4666 
L 2950 831 
L 4013 831 
L 4013 0 
L 750 0 
L 750 831 
z
" transform="scale(0.015625)"/>
       <path id="DejaVuSans-Bold-33" d="M 2981 2516 
Q 3453 2394 3698 2092 
Q 3944 1791 3944 1325 
Q 3944 631 3412 270 
Q 2881 -91 1863 -91 
Q 1503 -91 1142 -33 
Q 781 25 428 141 
L 428 1069 
Q 766 900 1098 814 
Q 1431 728 1753 728 
Q 2231 728 2486 893 
Q 2741 1059 2741 1369 
Q 2741 1688 2480 1852 
Q 2219 2016 1709 2016 
L 1228 2016 
L 1228 2791 
L 1734 2791 
Q 2188 2791 2409 2933 
Q 2631 3075 2631 3366 
Q 2631 3634 2415 3781 
Q 2200 3928 1806 3928 
Q 1516 3928 1219 3862 
Q 922 3797 628 3669 
L 628 4550 
Q 984 4650 1334 4700 
Q 1684 4750 2022 4750 
Q 2931 4750 3382 4451 
Q 3834 4153 3834 3553 
Q 3834 3144 3618 2883 
Q 3403 2622 2981 2516 
z
" transform="scale(0.015625)"/>
      </defs>
      <use xlink:href="#DejaVuSans-Bold-31"/>
      <use xlink:href="#DejaVuSans-Bold-33" x="69.580078"/>
     </g>
    </g>
   </g>
   <g id="text_3">
    <g clip-path="url(#p7e2df9dc0c)">
     <!-- 10 -->
     <g style="opacity: 0.5" transform="translate(112.590937 221.963825)scale(0.12 -0.12)">
      <defs>
       <path id="DejaVuSans-Bold-30" d="M 2944 2338 
Q 2944 3213 2780 3570 
Q 2616 3928 2228 3928 
Q 1841 3928 1675 3570 
Q 1509 3213 1509 2338 
Q 1509 1453 1675 1090 
Q 1841 728 2228 728 
Q 2613 728 2778 1090 
Q 2944 1453 2944 2338 
z
M 4147 2328 
Q 4147 1169 3647 539 
Q 3147 -91 2228 -91 
Q 1306 -91 806 539 
Q 306 1169 306 2328 
Q 306 3491 806 4120 
Q 1306 4750 2228 4750 
Q 3147 4750 3647 4120 
Q 4147 3491 4147 2328 
z
" transform="scale(0.015625)"/>
      </defs>
      <use xlink:href="#DejaVuSans-Bold-31"/>
      <use xlink:href="#DejaVuSans-Bold-30" x="69.580078"/>
     </g>
    </g>
   </g>
   <g id="text_4">
    <g clip-path="url(#p7e2df9dc0c)">
     <!-- 14 -->
     <g style="opacity: 0.5" transform="translate(239.485348 213.93223)scale(0.12 -0.12)">
      <defs>
       <path id="DejaVuSans-Bold-34" d="M 2356 3675 
L 1038 1722 
L 2356 1722 
L 2356 3675 
z
M 2156 4666 
L 3494 4666 
L 3494 1722 
L 4159 1722 
L 4159 850 
L 3494 850 
L 3494 0 
L 2356 0 
L 2356 850 
L 288 850 
L 288 1881 
L 2156 4666 
z
" transform="scale(0.015625)"/>
      </defs>
      <use xlink:href="#DejaVuSans-Bold-31"/>
      <use xlink:href="#DejaVuSans-Bold-34" x="69.580078"/>
     </g>
    </g>
   </g>
   <g id="text_5">
    <g clip-path="url(#p7e2df9dc0c)">
     <!-- 17 -->
     <g style="opacity: 0.5" transform="translate(257.026847 95.476721)scale(0.12 -0.12)">
      <defs>
       <path id="DejaVuSans-Bold-37" d="M 428 4666 
L 3944 4666 
L 3944 3988 
L 2125 0 
L 953 0 
L 2675 3781 
L 428 3781 
L 428 4666 
z
" transform="scale(0.015625)"/>
      </defs>
      <use xlink:href="#DejaVuSans-Bold-31"/>
      <use xlink:href="#DejaVuSans-Bold-37" x="69.580078"/>
     </g>
    </g>
   </g>
   <g id="text_6">
    <g clip-path="url(#p7e2df9dc0c)">
     <!-- 0 -->
     <g style="opacity: 0.5" transform="translate(86.337878 277.990477)scale(0.12 -0.12)">
      <use xlink:href="#DejaVuSans-Bold-30"/>
     </g>
    </g>
   </g>
   <g id="text_7">
    <g clip-path="url(#p7e2df9dc0c)">
     <!-- 18 -->
     <g style="opacity: 0.5" transform="translate(302.247632 55.877615)scale(0.12 -0.12)">
      <defs>
       <path id="DejaVuSans-Bold-38" d="M 2228 2088 
Q 1891 2088 1709 1903 
Q 1528 1719 1528 1375 
Q 1528 1031 1709 848 
Q 1891 666 2228 666 
Q 2563 666 2741 848 
Q 2919 1031 2919 1375 
Q 2919 1722 2741 1905 
Q 2563 2088 2228 2088 
z
M 1350 2484 
Q 925 2613 709 2878 
Q 494 3144 494 3541 
Q 494 4131 934 4440 
Q 1375 4750 2228 4750 
Q 3075 4750 3515 4442 
Q 3956 4134 3956 3541 
Q 3956 3144 3739 2878 
Q 3522 2613 3097 2484 
Q 3572 2353 3814 2058 
Q 4056 1763 4056 1313 
Q 4056 619 3595 264 
Q 3134 -91 2228 -91 
Q 1319 -91 855 264 
Q 391 619 391 1313 
Q 391 1763 633 2058 
Q 875 2353 1350 2484 
z
M 1631 3419 
Q 1631 3141 1786 2991 
Q 1941 2841 2228 2841 
Q 2509 2841 2662 2991 
Q 2816 3141 2816 3419 
Q 2816 3697 2662 3845 
Q 2509 3994 2228 3994 
Q 1941 3994 1786 3844 
Q 1631 3694 1631 3419 
z
" transform="scale(0.015625)"/>
      </defs>
      <use xlink:href="#DejaVuSans-Bold-31"/>
      <use xlink:href="#DejaVuSans-Bold-38" x="69.580078"/>
     </g>
    </g>
   </g>
   <g id="text_8">
    <g clip-path="url(#p7e2df9dc0c)">
     <!-- 6 -->
     <g style="opacity: 0.5" transform="translate(95.024741 53.071167)scale(0.12 -0.12)">
      <defs>
       <path id="DejaVuSans-Bold-36" d="M 2316 2303 
Q 2000 2303 1842 2098 
Q 1684 1894 1684 1484 
Q 1684 1075 1842 870 
Q 2000 666 2316 666 
Q 2634 666 2792 870 
Q 2950 1075 2950 1484 
Q 2950 1894 2792 2098 
Q 2634 2303 2316 2303 
z
M 3803 4544 
L 3803 3681 
Q 3506 3822 3243 3889 
Q 2981 3956 2731 3956 
Q 2194 3956 1894 3657 
Q 1594 3359 1544 2772 
Q 1750 2925 1990 3001 
Q 2231 3078 2516 3078 
Q 3231 3078 3670 2659 
Q 4109 2241 4109 1563 
Q 4109 813 3618 361 
Q 3128 -91 2303 -91 
Q 1394 -91 895 523 
Q 397 1138 397 2266 
Q 397 3422 980 4083 
Q 1563 4744 2578 4744 
Q 2900 4744 3203 4694 
Q 3506 4644 3803 4544 
z
" transform="scale(0.015625)"/>
      </defs>
      <use xlink:href="#DejaVuSans-Bold-36"/>
     </g>
    </g>
   </g>
   <g id="text_9">
    <g clip-path="url(#p7e2df9dc0c)">
     <!-- 1 -->
     <g style="opacity: 0.5" transform="translate(55.944351 245.846766)scale(0.12 -0.12)">
      <use xlink:href="#DejaVuSans-Bold-31"/>
     </g>
    </g>
   </g>
   <g id="text_10">
    <g clip-path="url(#p7e2df9dc0c)">
     <!-- 3 -->
     <g style="opacity: 0.5" transform="translate(42.691167 122.789525)scale(0.12 -0.12)">
      <use xlink:href="#DejaVuSans-Bold-33"/>
     </g>
    </g>
   </g>
   <g id="text_11">
    <g clip-path="url(#p7e2df9dc0c)">
     <!-- 4 -->
     <g style="opacity: 0.5" transform="translate(32.078205 166.013013)scale(0.12 -0.12)">
      <use xlink:href="#DejaVuSans-Bold-34"/>
     </g>
    </g>
   </g>
   <g id="text_12">
    <g clip-path="url(#p7e2df9dc0c)">
     <!-- 11 -->
     <g style="opacity: 0.5" transform="translate(178.296498 246.940628)scale(0.12 -0.12)">
      <use xlink:href="#DejaVuSans-Bold-31"/>
      <use xlink:href="#DejaVuSans-Bold-31" x="69.580078"/>
     </g>
    </g>
   </g>
   <g id="text_13">
    <g clip-path="url(#p7e2df9dc0c)">
     <!-- 12 -->
     <g style="opacity: 0.5" transform="translate(92.93374 156.659713)scale(0.12 -0.12)">
      <use xlink:href="#DejaVuSans-Bold-31"/>
      <use xlink:href="#DejaVuSans-Bold-32" x="69.580078"/>
     </g>
    </g>
   </g>
   <g id="text_14">
    <g clip-path="url(#p7e2df9dc0c)">
     <!-- 7 -->
     <g style="opacity: 0.5" transform="translate(289.436075 258.682352)scale(0.12 -0.12)">
      <use xlink:href="#DejaVuSans-Bold-37"/>
     </g>
    </g>
   </g>
   <g id="text_15">
    <g clip-path="url(#p7e2df9dc0c)">
     <!-- 5 -->
     <g style="opacity: 0.5" transform="translate(166.678495 308.36811)scale(0.12 -0.12)">
      <defs>
       <path id="DejaVuSans-Bold-35" d="M 678 4666 
L 3669 4666 
L 3669 3781 
L 1638 3781 
L 1638 3059 
Q 1775 3097 1914 3117 
Q 2053 3138 2203 3138 
Q 3056 3138 3531 2711 
Q 4006 2284 4006 1522 
Q 4006 766 3489 337 
Q 2972 -91 2053 -91 
Q 1656 -91 1267 -14 
Q 878 63 494 219 
L 494 1166 
Q 875 947 1217 837 
Q 1559 728 1863 728 
Q 2300 728 2551 942 
Q 2803 1156 2803 1522 
Q 2803 1891 2551 2103 
Q 2300 2316 1863 2316 
Q 1603 2316 1309 2248 
Q 1016 2181 678 2041 
L 678 4666 
z
" transform="scale(0.015625)"/>
      </defs>
      <use xlink:href="#DejaVuSans-Bold-35"/>
     </g>
    </g>
   </g>
   <g id="text_16">
    <g clip-path="url(#p7e2df9dc0c)">
     <!-- 8 -->
     <g style="opacity: 0.5" transform="translate(143.807458 38.81439)scale(0.12 -0.12)">
      <use xlink:href="#DejaVuSans-Bold-38"/>
     </g>
    </g>
   </g>
   <g id="text_17">
    <g clip-path="url(#p7e2df9dc0c)">
     <!-- 15 -->
     <g style="opacity: 0.5" transform="translate(198.955714 106.010041)scale(0.12 -0.12)">
      <use xlink:href="#DejaVuSans-Bold-31"/>
      <use xlink:href="#DejaVuSans-Bold-35" x="69.580078"/>
     </g>
    </g>
   </g>
   <g id="text_18">
    <g clip-path="url(#p7e2df9dc0c)">
     <!-- 16 -->
     <g style="opacity: 0.5" transform="translate(240.666145 150.124385)scale(0.12 -0.12)">
      <use xlink:href="#DejaVuSans-Bold-31"/>
      <use xlink:href="#DejaVuSans-Bold-36" x="69.580078"/>
     </g>
    </g>
   </g>
   <g id="text_19">
    <g clip-path="url(#p7e2df9dc0c)">
     <!-- 9 -->
     <g style="opacity: 0.5" transform="translate(308.77242 213.282248)scale(0.12 -0.12)">
      <defs>
       <path id="DejaVuSans-Bold-39" d="M 641 103 
L 641 966 
Q 928 831 1190 764 
Q 1453 697 1709 697 
Q 2247 697 2547 995 
Q 2847 1294 2900 1881 
Q 2688 1725 2447 1647 
Q 2206 1569 1925 1569 
Q 1209 1569 770 1986 
Q 331 2403 331 3084 
Q 331 3838 820 4291 
Q 1309 4744 2131 4744 
Q 3044 4744 3544 4128 
Q 4044 3513 4044 2388 
Q 4044 1231 3459 570 
Q 2875 -91 1856 -91 
Q 1528 -91 1228 -42 
Q 928 6 641 103 
z
M 2125 2350 
Q 2441 2350 2600 2554 
Q 2759 2759 2759 3169 
Q 2759 3575 2600 3781 
Q 2441 3988 2125 3988 
Q 1809 3988 1650 3781 
Q 1491 3575 1491 3169 
Q 1491 2759 1650 2554 
Q 1809 2350 2125 2350 
z
" transform="scale(0.015625)"/>
      </defs>
      <use xlink:href="#DejaVuSans-Bold-39"/>
     </g>
    </g>
   </g>
  </g>
 </g>
 <defs>
  <clipPath id="p7e2df9dc0c">
   <rect x="7.2" y="7.2" width="334.8" height="326.16"/>
  </clipPath>
 </defs>
</svg>
